<svg xmlns="http://www.w3.org/2000/svg" version="1.1" width="600px" height="600px" viewBox="0 0 200 200" style="overflow:hidden!important;"><g id="svga-group-wrapper"><g id="svga-group-backs-single"></g><g id="svga-group-humanwrap-move" transform="matrix(1,0,0,1,0,0)"><g id="svga-group-humanwrap"><g id="svga-group-hair-back-move" transform="matrix(1,0,0,1,0,0)"><g id="svga-group-hair-back"><path id="SvgjsPath14145" d="M161 137.8c-.7-.5-1.4-1.1-2-1.6-2.1-4.4-4.2-8.8-6.1-13.2-1.7-5.2-2.4-10.4-2.7-15.6.2-2.2.3-4.3.5-6.5v.2c-.2 11.1 2.8 22 9.3 31.1.2.3.7 0 .5-.3-6.9-11.5-9.4-23.3-8.5-36.6.3-4.3.4-8.6.3-12.8.3-4 .2-8-1-11.6-.4-2.5-.9-5-1.6-7.6V63c-.7-4.5-1.4-8.8-5-11.9-.2-.2-.5.1-.3.3 4.1 3.9 4.4 10.2 5.1 15.5v.2c-.1.1-.1.1-.1.2l.3 3.3c-.1-.3-.6-.1-.5.2.1.3.2.6.3.8.1 1.4.1 2.9 0 4.3-.3 0-.5-.1-.8-.1.1-2.4.1-4.8.1-7.1 0-.6-.9-.6-.9 0 0 .9-.1 1.8-.1 2.7-.2 0-.3.2-.3.4.1 1.1.1 2.1.1 3.2 0 .3 0 .6-.1.9-.8.1-1.5.2-2.1.2-4.6.2-9.2.3-13.9.4a1109.663 1109.663 0 0 1-51.6 0c-8.7-.2-17.6-1-26.2-.5v-.1c-.2-.4-.7-.4-.9 0-.2-.1-.4-.1-.6 0-.2-.4-.9-.4-1 .1-.5 2.6-.9 6.1-.6 9.1-.1 7.4.5 14.7 0 21.9-.2 1.3-.4 2.7-.6 4 .9-9.7.9-19.6 0-29.1.4-13.9 1.3-30.4 15.9-36.8.2-.1.1-.4-.1-.3-11.6 4-15.4 16.8-16.2 27.8-.1 1.1-.2 2.3-.2 3.4v-.2c0-.2-.4-.2-.4.1.1 2.1.1 4.2.2 6.3-.2 5.1-.3 10.1-.9 15.1-1.1 9.1-3.5 17.8-5.8 26.6-.1.3.4.4.5.1 3.5-8.9 5.4-18.5 6.4-28.1-.1 8.5-.5 16.9-1.3 25.5 0 .1-.1.3-.1.4 0 .1-.1.3-.1.4v.3c-.6 2.8-1.3 5.7-1.8 8.6-.1.5.2.8.5.9-.6 2-1.2 4.1-1.8 6.1-.1.3.4.4.5.1.2-.6.4-1.1.6-1.7-.3 1-.5 2-.8 3-.1.3.3.4.4.1 1.7-4.7 3.2-9.5 4.3-14.3.8-2.7 1.5-5.4 2.1-8.3.4-1.2.7-2.3 1-3.5-.1 1.2-.2 2.5-.3 3.7-.3 1.7-.7 3.3-1 4.9-.1-.1-.3 0-.3.1-2.5 8.1-4.9 16.4-6.9 24.6-.1.4.4.5.5.1.6-2 1.2-3.9 1.8-5.9.2.4.8.5 1 .1.5-.9.9-1.9 1.3-2.9-1.2 3.7-2.4 7.4-3.7 11.1-.1.2.3.4.4.2 2.4-5.6 4.2-11.4 5.7-17.3-.4 2-.9 4-1.4 5.9-.1.4.2.6.5.7-1 3.4-1.9 6.7-2.8 10.1 0 .2 0 .3.1.5-.1.2-.2.4-.2.6-.1.3.4.5.5.2.1-.1.2-.3.2-.5.3.1.5 0 .7-.3 2.3-4.7 4-9.8 5.2-15 .8-2.1 1.5-4.3 2-6.6v.7c-.8 4.1-1.7 8.1-2.7 12.2-1.3 4.1-2.8 8.2-4.1 12.3-.1.3.4.5.5.2.5-1.1 1-2.2 1.4-3.4-.1.4-.2.9-.3 1.4-.1.6.3 1 .8 1 0 .2-.1.4-.1.6 0 .2.3.5.5.2.2-.6.5-1.2.7-1.8.9-1.8 1.8-3.7 2.5-5.6-.1.4-.2.9-.3 1.3s.2.8.6.8c-.5 2.1-1 4.3-1.4 6.5 0 .3.3.4.4.1 1-2.8 1.7-5.6 2.2-8.4.7-1.6 1.4-3.4 2-5.1-1 4.9-2.3 9.6-3.3 14.5-.1.4.4.5.5.1 1.4-4.1 2.2-8.4 3-12.7-.1 1.4-.2 2.7-.3 4-.8 4-1.7 7.9-2.1 11.9 0 .3.4.3.5.1.4-1.5.8-3 1.1-4.5.4.2.9.1 1.2-.4 0-.1 0-.1.1-.1s.1-.1.2-.1l-.3 2.1c0 .5.4.8.8.8 0 .3-.1.6-.1.8 0 .3.4.4.5.1.2-.6.4-1.2.6-1.9.4-.8.8-1.6 1.1-2.4-.3 1.6-.7 3.1-.9 4.7-.1.4.4.5.5.1.8-2.2 1.3-4.6 1.7-6.9v.7c0 .1.1.3.1.4-.5 2.1-1.1 4.1-1.6 6.2-.1.3.4.6.6.2.8-1.9 1.4-4 1.8-6.1.2-.1.5-.2.6-.5 0-.1.1-.1.1-.2v.8c0 .3.2.5.4.6-.3 1.6-.6 3.3-.6 4.9 0 .4.5.4.7.1.6-1.8.8-3.6 1.1-5.5.2-.3.3-.6.5-1-.1 1.8-.1 3.6 0 5.3 0 .6.6.9 1.1.9 0 .6-.1 1.3-.1 1.9 0 .4.6.5.7.1.3-1.4.5-2.8.7-4.3.1-.2.1-.4.2-.5.1 2.3.1 4.6.2 7 0 .2.4.3.4.1.3-1.7.4-3.4.4-5.2h.1c0 1.3.1 2.5.2 3.8 0 .4.6.4.6 0 .2-1.5.3-3 .3-4.5l.3-1.5c.1 1.8.3 3.6.6 5.3.1.4.7.3.7-.1v-1.8c.2.2.5.2.7-.1.5-1.2.9-2.5 1.3-3.8.2 0 .4-.1.5-.3.4-.8.8-1.6 1.3-2.5 6.2-5.1 17.2-6.4 24.4-6.5 9.2-.1 17.5 2.9 24.8 8.4.3.9.6 1.8 1.1 2.6.5 2.3 1.4 4.5 2.6 6.5.1.1.4.1.3-.1-.5-1.3-1-2.6-1.4-3.8 0 0 0 .1.1.1.5.7 1.4.3 1.3-.6-.3-1.7-.8-3.4-1.3-5 1 2.3 2.4 4.4 4.4 5.9.6.4 1.6.1 1.3-.8-.6-1.4-1.2-2.8-1.9-4.2.6.8 1.3 1.4 2.1 2.1.3.2.6.3.9.2.3.4.6.9.9 1.3.2.3.7-.1.5-.4-.3-.5-.5-.9-.8-1.4.1-.2.1-.5 0-.9-.6-1-1.1-2-1.7-3 .5.5 1 1 1.5 1.4.3.2.6.3.9.2.9 1.1 2 2 3.2 2.7.2.1.5-.2.3-.4-.9-1-1.8-2-2.6-3 .1-.2.1-.5-.1-.8l-.6-.9c.8.8 1.7 1.5 2.6 2.1.1 0 .1.1.2.1s.1.1.2.1c.8.5 1.7 1 2.6 1.4.4.2.8-.4.4-.6-1.1-.8-2.1-1.6-3.1-2.5 1.5.9 3.1 1.5 4.9 1.5.3 0 .4-.5.1-.6-2.7-.7-4.9-1.9-6.9-3.8 1 .6 2.1 1.1 3.3 1.5 1.6 1.1 3.3 1.9 5.1 2.4.4.1.6-.4.3-.6-1.4-.8-2.8-1.6-4-2.5v-.4c.4.2.7 0 .8-.4.8.7 1.6 1.3 2.6 1.7h.2c.7.3 1.5.4 2.3.5.3 0 .4-.4.3-.6.6.2 1.3.3 1.9.3.4 0 .4-.5.1-.6-.4-.1-.8-.3-1.2-.4.3-.1.5-.4.6-.7.7.2 1.4.2 2.2.2.4 0 .4-.5.1-.6-.6-.2-1.2-.5-1.8-.7.7.1 1.4.1 2.1 0 .3-.1.3-.5 0-.6-1.2-.2-2.5-.7-3.9-1.4.1-.1.2-.2.2-.4 1.9.7 3.8 1.1 5.2 1.2.3 0 .4-.4.1-.6-1.1-.4-2.9-.9-4.6-1.6.3 0 .5-.2.6-.5.8.5 1.4-.5.9-1.2-.1-.2-.3-.3-.4-.5.3.2.6.5 1 .7.3.2.6.1.8-.1.7.6 1.4 1.1 2.1 1.6.6.4 1.1-.4.7-.9-.2-.2-.3-.4-.5-.5.8.4 1.7.7 2.6.9.3.1.5-.4.2-.5-2.1-1.3-4.1-2.6-5.9-4.2.3.1.6.1.8 0 1.1 1 2.3 2 3.5 2.9.5.4 1.1-.4.7-.9-1-1.2-2.1-2.3-3.1-3.4.1-.1.2-.3.1-.6 1.3 1.6 2.7 3 4.2 4.3.4.3 1.2-.1.8-.6-.7-1-1.4-1.9-2.2-2.9 1 .9 2.1 1.7 3.3 2.3.3.2.7-.2.4-.5-.9-.9-1.7-1.7-2.5-2.6.2 0 .4-.2.4-.4 0 0 .1 0 .1.1.1.1.1.1.2.1.7.4 1.4.7 2.2 1-.8.4-.5 0-.7-.2zm-9.9-53c0-.8-.1-1.6-.2-2.3.1.1.2.2.4.1-.1.7-.1 1.5-.2 2.2zm.3-4.6c0 .5 0 1-.1 1.6 0-.6-.1-1.2-.1-1.8l.2-.2v.4zm-.8-9.1c.3 1.9.5 3.9.6 5.9-.1-.1-.1-.2-.2-.2-.2-2.1-.3-4.1-.6-6.2.1.2.1.3.2.5zm-97.6 41v-.9c.3-1.7.6-3.5.8-5.3v.5c-.2 1.8-.5 3.8-.8 5.7zm4.3 24.7.6-4.2c.1 0 .2.1.4.1-.3 1.3-.7 2.7-1 4.1zm76.6 2.5c-.1-.2-.1-.4-.2-.6 1.1 2.1 2.5 4.2 4.1 6-1.6-1.5-2.9-3.3-3.9-5.4zm14.2 4.5c-.1-.1-.1-.2-.2-.3.4.2.7.5 1.1.7-.3-.1-.6-.2-.9-.4z" fill="#2a232b" stroke-width="none" opacity="1"></path><path id="SvgjsPath14146" d="M49.5 130.5c.4-3.6.9-7.3 1.3-10.9-.1 0-.2-.1-.2-.2-.2-5.4-.2-10.7-1-16.1-.1-.4.6-.6.7-.2.6 3.8 1.1 7.7 1.1 11.5.4-3.8.8-7.7 1.1-11.6 0-.4.6-.4.6 0-.1 9.2-.9 18.6-2.9 27.6-.2.3-.7.2-.7-.1zm105.6 6.8c-.7-1-1.3-2-1.9-3 .5 1 1 2 1.6 3 .2.3-.3.7-.5.4-.6-.8-1.2-1.6-1.7-2.4h-.1c.3.6.7 1.1 1 1.7.2.4-.3.8-.6.4-.2-.2-.4-.5-.6-.8 0 .1-.1.1-.1.1.7.9 1.4 1.9 2.1 2.9.2.1.3.3.5.4.2.2-.1.6-.4.5-1.9-1.1-3.6-2.5-5.2-4.1-.1.1-.3.2-.5.1-1.2-.8-2.4-1.8-3.5-2.7 2.1 2.4 4.6 4.5 7.3 6.4.3.2 0 .6-.2.4-5.7-2.7-9.9-7.6-12.4-13.2-3.3-5.1-5.2-11-6-17 .9 12.6 5.4 23.9 14.4 33.1.3.3 0 .6-.2.7.6.5 1.2 1.1 1.8 1.6.2.2-.1.6-.4.5-1.1-.7-2.1-1.4-3.1-2.2.2.2.3.4.5.6.5.4 1.1.8 1.6 1.3.2.2.2.5 0 .6 0 .1.1.1.1.2.3.4-.2.9-.5.6-.5-.5-1.1-1.1-1.6-1.7-2.8-1.7-5.2-4-7.2-6.6-.2.1-.5.1-.6 0 2.4 3 5.1 5.8 8 8.5.3.3-.1.8-.4.5-1.5-1.1-2.9-2.2-4.2-3.5 1.1 1.2 2.2 2.3 3.5 3.4.3.3-.1.8-.5.6-3.3-2.3-6.2-5.2-8.6-8.4 2.5 3.4 5.4 6.5 8.6 9.6.2.2-.1.6-.4.5-3-1.9-5.5-4.3-7.6-7.1.4.6.8 1.2 1.3 1.8.1.1.1.2 0 .3 1.2 1.4 2.5 2.9 3.8 4.3.3.3-.1.7-.4.4-2-1.7-3.9-3.5-5.6-5.5 1.4 3 3.1 5.9 5.1 8.7.4.5-.5 1-.8.5-1.3-1.7-2.5-3.4-3.6-5.2-.9-1.1-1.6-2.2-2.4-3.3 1.2 3 2.7 6 4.4 8.9.2.4-.4.8-.6.4-1.6-2.2-2.9-4.6-4.2-7l.3.9c.2.4-.5.6-.7.3-.3-.5-.6-1.1-.9-1.6.7 1.9 1.3 3.8 2 5.7.1.3-.3.5-.5.3-.6-.7-1.1-1.5-1.5-2.2l.9 2.4c.2.4-.5.7-.7.3-1.3-2.1-2.3-4.4-3.1-6.8.8 3 2.3 5.7 3.4 8.7.1.3-.3.5-.5.3-1.8-1.8-3-4.1-3.8-6.7.5 2.2 1.1 4.9 2.6 6.4.2.2 0 .8-.4.6-1.6-.6-2.2-2.1-2.6-3.7-.1.3-.6.5-.8.1-1-2.2-1.9-4.6-2.5-7 .6 2.2 1.2 4.5 1.9 6.8.1.2-.2.4-.3.3-.1.2-.4.2-.6 0-6.6-8.5-7.5-19.9-6.8-30.2 0-.6.9-.6.9 0 .8 9.8.9 19.1 5.3 27.9-5.2-12.6-6.2-26.9-3.2-40.2.1-.3.6-.3.6.1-1.4 10.8-.9 21.2 1.2 31.6-1.4-7.2-1.3-14.8 0-21.8.1-.3.5-.2.5.1v.4c.1 0 .2.1.2.3.3 4.4 1.2 8.5 2.3 12.5-1.2-4.8-1.7-9.9-1.8-14.8 0-.6.9-.6.9 0 .3 5.1 1.4 10 2.7 14.8-.5-2.6-.8-5.2-1-7.9-.2-1.2-.4-2.5-.5-3.7-.2-1.7-.4-3.5-.4-5.3 0-.4.5-.4.6 0 0 .4.1.7.2 1.1 0-1.8.1-3.5.2-5.3 0-.6.9-.6 1 0 .1 1.8.2 3.5.3 5.3 1.5 7.1 4.7 13.2 8.6 19.1 1.4 1.8 2.9 3.4 4.5 4.9-1.7-1.6-3.1-3.4-4.4-5.2-.5-.6-.9-1.2-1.4-1.7-.1-.1-.1-.2 0-.3-3.8-6-6-13-6.9-20.1-.1-.5.6-.7.7-.2 1 4.6 2.5 8.9 4.5 13-2.4-6.9-3.3-14.3-2.6-22 0-.3.4-.3.4 0 0 2.2 0 4.3.2 6.4 0-.8 0-1.5.1-2.2 0-.3.3-.3.5-.2 0-.6-.1-1.1-.1-1.7 0-.6.9-.6.9 0 .8 7 3.3 13.1 6.8 18.7-.8-1.7-1.6-3.4-2.2-5.1-.1-.3.4-.5.5-.2 2.2 5.1 5.1 9.4 8.6 13.3-6.4-7.8-10.5-17.6-10-27.7 0-.6.9-.6 1 0 .5 5.6 1.6 11 3.6 16-.5-1.6-.8-3.2-.9-4.9-.1-.3-.1-.7-.2-1 0-.1 0-.2.1-.2v-1.9c0-.3.5-.3.5 0 .2 3.7 1 6.9 2.3 9.9-.7-2.3-1.2-4.6-1.4-7-1.2-5-1.6-10.2-1-15.3.1-.6 1-.7 1 0 .1 2.9.3 5.7.6 8.5.1 0 .2.1.2.2.1.9.2 1.7.3 2.6.1 0 .2.1.2.2.3 2.7.9 5.2 1.5 7.6.4 1.2.8 2.3 1.2 3.5-1.5-4.8-2.4-9.8-2.5-14.7 0-.2.2-.3.4-.1-.5-5.6-.6-11.1 0-16.6.1-.7 1.1-.7 1.1 0 .3 7.8.6 15.5 1.5 23.2 1.7 7.5 4.5 14.3 8.2 21.3.1-.3-.5 0-.8-.3zm-28.1 8.2c-.2-1.4-.3-2.8-.3-4.2-.6-2-1-4-1.3-6.1.3 3.5.8 6.9 1.6 10.3zm10.1-6.7c-2.6-3.5-4.6-7.5-6.3-11.5 0-.1 0-.2.1-.2-.1-.3-.2-.5-.3-.8.1.7.2 1.4.3 2 .3.7.6 1.4.9 2.2 1.5 2.9 3.3 5.7 5.3 8.3zm5.9 2.7-.3-.3c-.1 0-.2 0-.2-.1.2.1.4.3.5.4zm-1.7-4.6c.6 1 1.2 2 1.9 2.9.8.7 1.5 1.4 2.3 2.1-1.5-1.5-2.9-3.2-4.2-5zm13.3-6.3c-2.3-4.7-4-9.2-5.1-14 .2 0 .3-.1.3-.3-1-4.7-1.6-9.3-1.4-14.1 0-.3-.5-.3-.5 0 0 .6-.1 1.2-.1 1.8-.1 0-.2.1-.2.2-.7 9.2 1.2 18.9 6.5 26.6.2.3.6 0 .5-.2zm-5.4-40.3c.5-1.9.8-3.9.8-5.9 0 1.9.1 3.7-.2 5.6 0 .3.4.4.4.1.5-2.1.8-4.5.3-6.7-.1-.3-.6-.2-.6.1 0-.9-.1-1.9-.2-2.8-.1-.4-.6-.4-.6 0-.1 3.2-.4 6.3-.6 9.5.2.4.6.4.7.1zm-96-1.7c-.1-.7-.1-1.4-.2-2.1.1.6.2 1.3.2 1.9 0 .4.6.4.6 0-.2-2.8-.2-5.7-.7-8.5 0-.1-.1-.2-.2-.2v-1.4c0-.3-.5-.4-.5-.1-.6 3.5-.4 6.9.2 10.4.1.4.7.4.6 0zm-2.1.2c-.2-4.4-.2-8.7-.2-13 0-.3-.5-.4-.5-.1-.8 4.3-.6 8.9.4 13.2 0 .1.3.1.3-.1zm27.6 31.4c1.2 11 1.1 22.5-3.4 32.7-.1.3-.5.2-.6-.1l-.3 1.5c-.2.7-1.2.4-1.1-.3.3-1.5.5-3 .7-4.5-.1 0-.2-.2-.2-.3-.2 1.8-.4 3.6-.7 5.4-.1.5-.8.3-.8-.1.3-3.7.5-7.4.7-11.1-.1-.1-.1-.2-.1-.3 0-3-.1-5.9-.2-8.9 0 .7-.1 1.4-.1 2.1.3 6.4.1 12.9-.8 19 0 .2-.2.3-.4.3 0 .5-.8.5-.8 0v-.4c-.1 0-.1-.1-.1-.2 0-.2 0-.5.1-.7 0-1.9 0-3.8.1-5.8-.1-2.9-.1-5.8-.1-8.8-.1 4-.6 7.9-1.3 11.8-.1.3-.5.2-.5-.1.1-1.6.3-3.2.4-4.7-.4 3-.9 6-1.5 8.9-.1.4-.7.3-.6-.1.1-2.4.3-4.7.6-7.1-.1 0-.2 0-.2-.1-.1.5-.2.9-.3 1.4 0 .1-.1.2-.2.2-.1.5-.2.9-.4 1.4-.1.3-.5.2-.4-.1.2-1 .4-2.1.6-3.1.3-5.2.6-10.3.9-15.5-.2-2.3-.4-4.6-.7-6.9.1 1.4.1 2.9.1 4.3.1 0 .2.1.2.3 0 1.9-.1 3.8-.2 5.6.1 0 .1.1.1.2-.1 1.9-.2 3.7-.5 5.5-.2 2.5-.5 5-1 7.4-.1.3-.5.4-.7.2-.4 1.2-.8 2.5-1.3 3.7-.1.1-.2.1-.3.1-.1.2-.1.3-.2.5-.1.4-.6.2-.6-.2.7-4.5 1.3-8.8 1.7-13.1-.4 4.8-1.5 9.6-3.1 14-.1.3-.6.2-.5-.1 1.4-5.7 2.3-11.2 2.8-16.9-.6 3.1-1.4 6.2-2.3 9.2-.1.3-.5.2-.5-.1 1.2-5.5 2.3-10.9 3.1-16.5-.1-2.2-.2-4.4-.4-6.6 0 3.2-.3 6.4-.7 9.6-.3 4.3-1 8.6-2.6 12.6-.1.3-.5.2-.4-.1.7-3.3 1.3-6.5 1.8-9.8.7-7.9.7-15.7.1-23.6 0 .8-.1 1.5-.1 2.3.2 7.3-.5 14.7-1.9 21.8.9-4.1 1.5-8.2 2-12.4 0-.2.3-.2.3 0 .1 6.7-1 13.6-3.4 19.8-.1.3-.6.2-.5-.1.5-2 1-3.9 1.4-5.8-.2.3-.8.1-.8-.3 0-.3.1-.6.1-.9-.5 2.2-1.2 4.3-1.9 6.4-.1.4-.7.2-.6-.2.1-.5.2-1.1.4-1.6-.3 1-.6 2-.9 2.9-.2.5-.9.3-.8-.2.6-2.5 1.1-5 1.5-7.4-.8 3.4-1.9 6.8-3.3 9.9-.2.4-.7.1-.6-.3 0-.1.1-.2.1-.3.6-3.2 1.2-6.4 1.6-9.6-1 3.5-2.1 6.9-3.5 10.2-.2.4-.8.1-.7-.3 1-3.7 1.9-7.4 2.8-11.1-.3.1-.6-.1-.6-.4-.1.3-.2.5-.2.8-.2.5-.9.3-.8-.2 1.8-8.5 2.9-16.9 3.4-25.6 0-.3.3-.4.5-.2.1-4.9 0-9.9-.3-14.9 0-.5.8-.6.9-.1.5 2.4.8 4.9 1 7.4 0-1.7.1-3.4.1-5.2 0-.7 1-.7 1.1 0 .8 6.4.7 13 .2 19.5.1 1.3.2 2.6.2 3.9 0-.3.1-.6.1-.9.1-1.6.2-3.3.2-4.9 0-.2.2-.3.3-.3l.3-3.6c0-.4.3-.5.5-.6-.1-2.5-.1-5-.2-7.5 0-.5.7-.5.8-.1l.3 1.5c.1-1.7.2-3.4.2-5.1 0-.5.8-.5.8 0 .1.9.1 1.8.1 2.7.2-.2.5-.3.8-.1v-.2c-.1-.4.5-.6.7-.2.9 3.2 1.5 6.4 2 9.7 0-.7-.1-1.4-.1-2.1 0-.4.6-.5.7-.1.1.9.2 1.7.4 2.6 0-.9.1-1.8.1-2.7 0-.3.2-.5.4-.5-.1-1-.2-1.9-.3-2.8 0-.6.9-.7 1-.1.7 2.6 1.2 5.2 1.6 7.9-.1-1.2-.2-2.5-.2-3.7 0-.6.9-.7 1-.1.3 1.6.5 3.2.7 4.8.2-.4.9-.4 1 .1.1.3.1.6.2.9-.1-1.4-.2-2.9-.3-4.3 0-.6.9-.7 1-.1 1.2 5.1 1.9 10.4 2.1 15.7.5 7.7.3 15.6-.5 23.3.2-1.5.5-3 .7-4.5.5-7.3.1-14.7.1-22.1 0-.5.8-.5.8 0 .2 1.5.3 3 .4 4.5.1-2.8.1-5.7.1-8.6 0-.5.7-.5.7 0v.4l.1.1c1 10.2.6 20.5-1.5 30.5-.1 1-.3 2.1-.5 3.1 3.8-10.5 3.1-21.2 3.2-32.2-.1-.4.6-.4.6.1zm-22.5-7.9c0 .2-.1.5-.1.7v.7c0-.4 0-.9.1-1.4zm5.6-4.8c-.1-1.3-.2-2.6-.3-3.8v2.9c.1.1.1.1.1.2.1.2.2.5.2.7zm2.3 19.5v-.1.1zm.1-.7c0-2.2 0-4.5-.1-6.7v6.8c0-.1.1-.1.1-.1zm.2 6c0 .2 0 .3-.1.5.1 1.3.1 2.6 0 3.9.2-1.4.2-2.9.1-4.4zm.8-3.3v-3.4c0 .7-.1 1.3-.2 2 0 .5.1 1 .2 1.4zm5.2 3.2c0-2 0-3.9-.1-5.9v-.3 5.6s.1.1.1.2v.4z" fill="#1b141c" stroke-width="none" opacity="1"></path></g></g><g id="svga-group-humanbody-back"><path id="SvgjsPath14092" d="M166.5 181.1c-10.9-6.6-24-7.8-31-12.1s-9.1-4.7-8.9-17.8 1.9-42.4 1.9-42.4H71.4s1.6 29.4 1.9 42.4-1.9 13.5-8.9 17.8-20.1 5.4-31 12.1c-10.8 6.6-10 18.9-10 18.9v19.7h153.3V200c-.1 0 .7-12.3-10.2-18.9z" fill="#f0c7b1" stroke-width="none" opacity="1"></path></g><g id="svga-group-chinshadow-single"><path id="SvgjsPath14088" d="M126.7 151.4v-.1c.3-13 1.9-42.4 1.9-42.4H71.4s1.6 29.4 1.9 42.4v.1c7.5 10 16.8 16.6 26.7 16.6s19.2-6.6 26.7-16.6z" fill="#d19271" stroke-width="none" opacity="1"></path></g><g id="svga-group-humanbody-front"><path id="SvgjsPath14093" d="M176.7 197.2c-.1-.9-.3-1.9-.5-2.8-.4-1.8-1.1-3.6-2-5.3-.4-.8-.9-1.6-1.5-2.4-.5-.8-1.1-1.5-1.8-2.2-1.3-1.4-2.8-2.6-4.4-3.5-3.5-2.1-7.2-3.7-11.1-5.1-1.9-.7-3.8-1.3-5.8-1.9-1.9-.6-3.9-1.2-5.8-1.8-1.9-.6-3.8-1.3-5.6-2.2-.9-.4-1.8-.9-2.6-1.4L133 167c-1.7-1.1-3.3-2.2-4.2-3.9-.2-.4-.4-.8-.6-1.3-.2-.5-.3-.9-.4-1.4-.2-.9-.3-1.9-.4-2.9-.1-2-.1-4 0-6s.2-4 .3-6.1c.2-4 .4-8.1.6-12.1l1.3-24.3.1-1.2h-1.2c-4.8 0-9.5.1-14.3.1l-14.2.1-28.6.4h-.5v.5c.6 10 1.2 19.9 1.6 29.9.2 5 .4 10 .4 15 0 1.2-.1 2.5-.2 3.7s-.3 2.4-.6 3.6c-.3 1.1-.9 2.2-1.7 3.1-.8.9-1.8 1.6-2.8 2.2-1 .7-2.1 1.3-3.2 1.9-.5.3-1.1.6-1.6.9-.5.3-1.1.5-1.7.8-2.3.9-4.6 1.6-7 2.3-4.8 1.4-9.7 2.7-14.4 4.6-2.3 1-4.6 2.1-6.8 3.4-2.2 1.3-4.3 3.1-5.9 5.2-1.6 2.1-2.8 4.4-3.6 6.9-.4 1.2-.7 2.5-.9 3.8-.1.6-.2 1.3-.2 2 0 .3 0 .7-.1 1v20.9h154.6l.1-20c0-1.1-.1-2-.2-2.9zM24.6 217.7v-19.5c0-.6.1-1.2.2-1.8.2-1.2.4-2.3.8-3.5.7-2.3 1.8-4.4 3.2-6.3 1.4-1.9 3.2-3.5 5.2-4.7 2.1-1.3 4.3-2.4 6.5-3.4 4.5-2 9.3-3.4 14.1-4.9 2.4-.8 4.8-1.5 7.1-2.6.6-.3 1.2-.5 1.7-.8.3-.2.6-.3.8-.5.3-.2.6-.3.8-.5 1.1-.7 2.1-1.3 3.2-2s2.1-1.5 3-2.5c.4-.5.8-1.1 1.1-1.7.3-.6.5-1.2.7-1.8.4-1.3.5-2.5.6-3.8s.1-2.5.1-3.8 0-2.5-.1-3.8l-.1-3.7-.3-7.5-1.2-29.2 28 .4 14.3.2c4.4 0 8.7.1 13.1.1-.4 7.7-.8 15.4-1.1 23.1-.1 4.1-.3 8.1-.4 12.2 0 2-.1 4.1-.1 6.1s0 4.1.2 6.2c.1 1 .3 2.1.5 3.1.1.5.3 1 .5 1.5s.4 1 .7 1.5c.3.5.6.9 1 1.3s.8.8 1.2 1.1c.8.7 1.7 1.2 2.6 1.7l2.6 1.5c.9.5 1.8 1 2.8 1.4 1.9.8 3.8 1.4 5.8 2 3.9 1.1 7.8 2.2 11.7 3.5 1.9.6 3.8 1.4 5.7 2.2 1.8.8 3.6 1.8 5.4 2.8 1.6 1 3 2.2 4.3 3.5.6.7 1.2 1.4 1.7 2.2s1 1.6 1.4 2.4c.8 1.7 1.5 3.4 1.9 5.2.2.9.3 1.8.4 2.7.1.8.1 20.6.1 21.4-12.6-.2-151.7-1-151.7-1z" fill="#c27b55" stroke-width="none" opacity="1"></path><path id="SvgjsPath14094" d="M78.7 156.8c.5 4.8 1.7 9.4 3.1 13.9.8 2.3 1.6 4.6 2.6 6.9.8 2 1.7 4.2 3.1 5.9.3.4 1 0 .9-.5-.5-2.2-1.6-4.3-2.4-6.4-.9-2.2-1.7-4.4-2.5-6.6-1.5-4.4-2.8-8.9-4.1-13.3-.2-.4-.8-.3-.7.1zm41.3-1c-1.3 8.2-3.9 16.1-5.4 24.2-.1.4.4.5.6.2 3.1-7.7 4.1-16.1 5.1-24.3-.1-.2-.3-.2-.3-.1zm-25.8 11.9c-.9 3.6 1.9 8.6 6.2 7.6.5-.1.4-.8 0-1-1.4-.5-2.9-.9-3.9-2.1-1.1-1.2-1.5-2.9-1.4-4.5 0-.4-.8-.5-.9 0z" fill="#d19271" stroke-width="none" opacity="1"></path></g><g id="svga-group-clothes-single"><path id="SvgjsPath13974" d="M100.8 184.4c-1.1-3-8.2-7.8-13.2-10.6s-9.1-7.1-12.1-11c-3-3.9-2.2-6.3-2.2-6.3-.1-4.7-.6-10.1-.8-15.4-4.2-1.6-9.8 4-10.6 4.8-6.5 6.3-3.1 8.5-5.7 11.5-9.2 2.1-7.1 14.2-10.7 15-8.7 1.9-21.2 7-24.2 21 0 0-1.6 9.2-1.6 26.7h160.7c0-17.5-1.6-26.7-1.6-26.7-3.2-15.2-17.6-19-26.1-21.4-1.4-.6.2-5.2-2.5-10.5-1.4-2.7-3.9-6.5-9.3-7.8 0 0-1.2-6.6-5.4-9.9-4.2-3.3-7.1-3.8-7.1-3.8s-.3 13-.3 15.1c0 3.2-.8 3.9-2.2 5.7s-7.9 7.1-10.4 10.7-10.1 7.5-11.7 9c-1.6 1.5-3 3.9-3 3.9z" fill="#1e78a2" stroke-width="none" opacity="1"></path><path id="SvgjsPath13975" d="M105.6 187.4c-.6.6-1.7 3.4-1.8 5.7s1.8 11.5 2.1 13.4-1 7.4-1 8.5 2.8 2.8 3.1 1.7c.3-1.1 1.2-8.4.2-10.9s-2.2-10.1-2.2-11.6 1.1-5.6 1.6-6.5c0 0 .2-.8-.6-.9-.8-.1-1.4.6-1.4.6z" fill="#d6d6d6" stroke-width="none" opacity="1"></path><path id="SvgjsPath13976" d="M95.7 186.5s1.7-1.2 1.9 1c0 0-1.2 2.8-1.2 4.8s2.2 11.9 2.5 14.1-2.7 10.4-3.1 10.5-2.1-.9-2.6-1.3c-.4-.4 2.5-6.9 2.8-9.9.3-2.9-.4-8.7-1.2-12.2-.8-3.5.6-6.4 1-6.9" fill="#d6d6d6" stroke-width="none" opacity="1"></path><path id="SvgjsPath13977" d="M181.4 204.3c-.2-2.6-.4-5.2-.7-7.9l-.2-2-.1-1v-.3c0-.1 0-.2-.1-.3l-.1-.5c-.3-1.4-.7-2.7-1.2-4-1.1-2.6-2.6-5-4.4-7.1-1.9-2.1-4.1-3.8-6.5-5.2-4.6-2.7-9.6-4.2-14.5-5.5v-.1c-.1-.4-.1-.9-.1-1.4-.1-1-.1-2-.3-3.1-.3-2.1-1.1-4.2-2.1-6-1-1.8-2.4-3.6-4.1-4.9-1.5-1.2-3.2-2-5-2.6-.4-1.4-.8-2.8-1.4-4.1-.7-1.6-1.6-3.1-2.9-4.4-1.3-1.4-2.7-2.2-4.2-3.1-.7-.4-1.5-.8-2.3-1.2-.8-.4-1.6-.7-2.6-.9h-.2c-.6 0-1.1.5-1.1 1.1l-.1 14c0 1.2.1 2.3-.2 3.3-.1.5-.3.9-.5 1.4-.3.4-.6.9-1 1.3-.7.9-1.5 1.6-2.3 2.5l-2.5 2.4c-1.7 1.6-3.3 3.3-4.8 5.2-.4.4-.7 1-1.1 1.4-.2.2-.3.4-.5.6l-.6.6c-.8.8-1.7 1.5-2.6 2.2-1.8 1.4-3.8 2.7-5.7 4-.5.3-1 .7-1.4 1.1-.5.4-.8.9-1.2 1.3-.4.5-.7.9-1 1.4l-.5.8-.2.4-.1.1-.2-.3-.3-.6c-.2-.4-.5-.7-.8-1l-1.8-1.8c-1.3-1.1-2.6-2.2-4-3.2s-2.8-1.9-4.2-2.8c-1.4-.9-2.9-1.7-4.2-2.7-2.7-2-5.1-4.3-7.2-6.8-1.1-1.3-2.2-2.6-2.9-3.9-.4-.7-.7-1.4-.9-2.1-.1-.4-.2-.7-.2-1.1v-.5c0-.1 0-.4.1-.4 0-.1.1-.2 0-.3-.1-5.2-.5-10.3-.7-15.4 0-.4-.3-.8-.7-1-1.3-.5-2.6-.5-3.8-.2-1.2.3-2.2.8-3.2 1.4-2 1.1-3.6 2.6-5.2 4.1-1.5 1.6-3.1 3.3-3.9 5.6-.4 1.1-.5 2.4-.7 3.4-.1.9-.3 1.4-.7 1.9-1.7.4-3.3 1.3-4.5 2.5-1.4 1.4-2.3 3-2.9 4.7-.7 1.7-1.1 3.4-1.5 4.9-.2.8-.5 1.5-.8 2.1-.1.3-.3.4-.4.5 0 0-.1 0-.1.1l-.6.1c-3.3.8-6.6 1.9-9.8 3.4-3.1 1.6-6 3.6-8.4 6.2-2.4 2.6-4.2 5.7-5.3 9-.3.8-.5 1.7-.7 2.5l-.1.7c0 .1 0 .2-.1.4v.3l-.2 1.3c-.2 1.7-.3 3.4-.5 5-.5 6.7-.6 13.4-.5 20.1 0 .4.3.7.7.7 13.4-.2 26.8-.3 40.2-.2l20.1.1 20.1.2c13.4.2 26.8.4 40.2.5l40.2.2c.8 0 1.5-.7 1.5-1.5-.2-5-.3-10.3-.7-15.6zm-27.8-33.4zm-24.4-24.1c.8 1 1.4 2.1 1.6 3.2.1.8.1 1.6-.1 2.5-.2.8-.5 1.6-.9 2.4-.3.5-.6 1.1-1 1.6.1-.8.1-1.6.1-2.4l.3-7.3zm-55.5 14.9c.9 1.4 1.9 2.6 3 3.8-.4-.3-.8-.5-1.2-.8-1.2-.8-2.3-1.7-3.1-2.9-1.8-2.2-2.7-5.1-3.4-8-.3-1.4-.6-2.9.3-3.8.4-.5 1.1-.9 1.8-1.3.2-.1.4-.3.7-.4.2 2.7.4 5.4.5 8.1-.1.3-.1.4-.1.7v.8c.1.5.2 1 .3 1.4.3.8.7 1.7 1.2 2.4zM48 171.8c.5-.9.8-1.8 1-2.6.5-1.7.8-3.2 1.4-4.7.5-1.5 1.3-2.8 2.3-3.8s2.3-1.7 3.7-2c.2 0 .3-.1.5-.2.1 1.1.2 2.2.4 3.3.3 1.7.7 3.4 1.4 5 .3.9.8 1.6 1.2 2.4.5.7 1 1.5 1.5 2.2 2.3 2.8 5.1 4.8 8.2 6.4 3.1 1.6 6.3 2.8 9.7 3.4-3.1-1.4-6.1-3-8.9-4.8-1.4-.9-2.8-1.8-4-2.9-1.3-1.1-2.5-2.2-3.4-3.4-.5-.6-1-1.3-1.4-1.9-.4-.7-.8-1.4-1.1-2.1-.7-1.4-1.1-3.1-1.6-4.6-.4-1.4-.7-2.9-.9-4.3.1-.2.2-.3.2-.5.2-.6.3-1.3.4-1.9.1-1.1.2-2 .5-2.9.6-1.7 1.9-3.3 3.3-4.7 1.4-1.5 3-2.8 4.6-3.8 1.4-.9 3-1.4 4.4-1.2.1 2 .3 3.9.4 5.9l-.9.3c-.7.3-1.5.5-2.2 1.1-.7.5-1.1 1.5-1.2 2.3-.1.9 0 1.7.1 2.5.4 3.1 1.3 6.3 3.3 8.9 1 1.3 2.3 2.4 3.6 3.2l3.9 2.4c1.3.8 2.6 1.5 3.9 2.2.8.6 1.5 1.2 2.3 1.7 1.4 1 2.9 1.8 4.4 2.6 1.4.8 2.9 1.7 4.3 2.6s2.8 1.9 4.1 2.9c.7.5 1.3 1.1 1.9 1.7.3.3.6.6.8.9.1.2.2.3.3.5l.2.3c.1.1.2.3.3.4 0 0 .1 0 .2-.1v-.1l.1-.1.1-.2.2-.4.5-.7c.3-.5.7-.9 1.1-1.4.4-.4.8-.9 1.2-1.2.4-.3.9-.7 1.4-1 2-1.2 4-2.4 5.9-3.8 1-.7 1.9-1.4 2.8-2.2.2-.2.4-.4.7-.6.2-.2.4-.4.6-.7.4-.5.7-.9 1.1-1.4 1.5-1.7 3.2-3.3 4.9-4.9l2.6-2.4c.7-.7 1.4-1.3 2.1-2.1l1.5-1.2c1.5-1.3 2.8-2.7 3.8-4.5 1-1.8 1.4-4.1.7-6.1-.5-1.6-1.7-2.8-3-3.6l.2-4.6c.2.1.5.2.8.3.7.3 1.4.7 2 1.1 1.3.8 2.6 1.8 3.6 2.8 1 1.1 1.8 2.4 2.4 3.8.6 1.4 1.1 2.9 1.4 4.4.1.5.5.9 1 1.1.1 0 .1 0 .2.1-.2 2-.6 4-1.4 5.8-.6 1.5-1.3 2.9-2.3 4-1 1.2-2.2 2.3-3.4 3.3-.6.5-1.2 1-1.8 1.6l-1.9 1.5c-1.3 1-2.6 2-3.9 2.9-2.6 1.9-5.3 3.8-7.9 5.8 3.1-1.3 6-2.8 8.8-4.5 2.8-1.7 5.6-3.6 8.1-5.8.6-.6 1.3-1.1 1.8-1.7l.9-.9.8-1c1.1-1.4 1.8-3 2.3-4.7.6-2 .8-4 .7-6.1 1.4.5 2.6 1.1 3.7 2.1 1.4 1.1 2.4 2.6 3.3 4.2.9 1.6 1.5 3.3 1.7 5.1.1.9.2 1.8.2 2.8 0 .5 0 1 .1 1.6 0 .3.1.6.2 1.1.1.2.2.5.4.7l.1.1-1.4 1.4c-.9.8-1.9 1.6-2.8 2.4-1.9 1.6-3.9 3.1-5.9 4.5-2 1.4-4 2.9-6.1 4-1.1.6-2.1 1.1-3.2 1.5-1.1.4-2.3.8-3.5 1.1-2.4.7-4.8 1.3-7.2 1.8-2.4.6-4.8 1.1-7.2 1.5l-3.6.6c-.6.1-1.2.1-1.7.1-.6 0-1.1-.2-1.6-.4l-.2-.1c.3-1.1.6-2.3 1-3.3.1-.2 0-.5-.1-.7s-.4-.3-.7-.3c-.5 0-.9.3-1.2.6.3-.4.8-.6 1.2-.6.2 0 .5.1.6.3.1.2.2.4.1.7-.5 1.2-.8 2.4-1.2 3.7-.3 1.2-.6 2.6-.4 3.9.2 2.6.6 5.1 1.1 7.7.1.6.3 1.3.4 1.9l.3.9c.1.3.2.6.2.9.2 1.2.2 2.5.2 3.8-.1 1.3-.2 2.6-.3 3.8-.1.6-.2 1.3-.3 1.9 0 .1-.1.3-.1.4-.1 0-.4 0-.6-.1-.5-.2-1-.6-1.3-1-.1-.1-.1-.2-.2-.3v-.3c0-.3.1-.6.1-.9.2-1.3.4-2.5.6-3.8.1-.6.2-1.3.2-1.9 0-.6 0-1.4-.1-2l-.8-3.8c-.5-2.5-1.1-5.1-1.4-7.6-.1-.6-.1-1.3-.1-1.9 0-.5.1-.9.2-1.4.1.1.3.1.4.2-.1-.1-.3-.2-.4-.2 0-.1.1-.3.1-.5.2-.6.3-1.2.6-1.9-.2.6-.4 1.2-.6 1.9 0 .1-.1.3-.1.4-1-.6-2.1-.9-3.3-1.1-1.3-.2-2.5-.3-3.8-.5.2-.8.4-1.5.7-2.2 0-.2-.1-.5-.2-.7s-.2-.4-.5-.6c-.5-.2-1 0-1.4.3.4-.2.9-.4 1.3-.2s.5.8.5 1.2c-.5 1.2-1 2.4-1.2 3.8-.1.6-.2 1.4-.1 2 .1.7.2 1.3.3 2 .4 2.6.9 5.2 1.4 7.8l.3 1.9c.1.6.2 1.3.2 1.9-.1 1.2-.4 2.5-.8 3.7-.4 1.2-.8 2.5-1.2 3.7-.2.6-.5 1.2-.7 1.8-.1.1-.1.2-.2.4-.2-.1-.4-.1-.7-.3-.3-.1-.6-.3-.8-.5-.1-.1-.2-.2-.4-.3l-.1-.1c0-.2.1-.5.2-.8l.3-.9 1.3-3.7c.4-1.3.8-2.5 1-3.9.2-1.4.1-2.7 0-4-.2-2.6-.7-5.2-1.2-7.8-.6-1.8-.6-3.9-.1-5.7h.1s0-.1-.1-.1c.2-.6.4-1.2.7-1.8-.3.5-.6 1.1-.8 1.7-.5-.6-.8-1.4-.6-1.9.2-.6.8-1 1.6-.9.7 0 1.4.4 2 .9.3.3.5.6.6 1 .1.3-.1.7-.5 1 .2 0 .5-.1.7-.3s.3-.5.3-.7c0-.5-.2-1-.5-1.4-.6-.8-1.5-1.4-2.5-1.5-.5 0-1.1.1-1.6.4s-.8.8-.8 1.4c-.1 1.1.6 1.8 1.4 2.2-.1.4-.2.7-.3 1.1l-5.5-.7c-2.6-.4-5.2-.6-7.8-1-2.6-.4-5.2-.8-7.7-1.3-1.3-.2-2.5-.5-3.7-.9-1.2-.3-2.4-.9-3.6-1.4-2.4-1-4.7-2.3-6.9-3.5-2.3-1.3-4.5-2.6-6.7-4-1.1-.7-2.2-1.4-3.2-2.2l-1.5-1.2-.6-.6c-.2-.8 0-1.1.2-1.4zm52 47.5-20.1.2-20.1.1c-13.2.1-26.3 0-39.5-.2.1-6.4.4-12.9 1.1-19.3.2-1.6.4-3.3.6-4.9l.2-1.2v-.3c0-.1 0-.2.1-.3l.1-.6c.2-.8.4-1.5.7-2.3 1.1-3 2.8-5.7 5-8s4.9-4.1 7.8-5.5c2.9-1.4 6-2.5 9.1-3.2l.6-.1c.4-.1.7-.2 1-.5.2-.1.3-.2.4-.4.5.8 1.2 1.4 1.9 2.1 1 .9 2 1.8 3 2.6 2.1 1.6 4.2 3.1 6.5 4.6 2.2 1.4 4.5 2.7 6.9 3.9 1.2.6 2.4 1.1 3.8 1.5 1.3.4 2.6.7 3.9 1 5.2 1 10.4 1.6 15.7 1.9 2.2.1 3.4.2 5.5.2-.1 1.2 0 2.5.2 3.7.5 2.6.8 5.2.9 7.8.1 1.3.1 2.6-.1 3.9-.2 1.2-.6 2.5-1 3.7l-1.3 3.7c-.1.3-.2.6-.3 1-.1.3-.2.6-.2 1.1v.3c0 .1.1.2.1.2l.1.1c.1.1.2.1.2.2.1.1.3.2.4.3.3.2.6.4.9.5.3.2.6.3 1.1.4h.4c.2-.1.2-.1.3-.2.1-.1.2-.2.2-.3.1-.2.2-.3.2-.5.3-.6.5-1.2.7-1.9.4-1.2.8-2.5 1.2-3.8.3-1.3.7-2.6.8-4 0-.8-.2-1.4-.3-2-.1-.6-.2-1.3-.4-1.9-.5-2.6-1.1-5.1-1.6-7.7-.1-.6-.2-1.3-.3-1.9-.1-.6-.1-1.3 0-1.9 0-.2.1-.4.1-.6 2.4.1 4.9-.1 7.2.7-.1.5-.2.9-.2 1.4-.1.6 0 1.3.1 1.9.3 2.6.7 5.1 1.1 7.7l.6 3.8c.2 1.2-.1 2.5-.3 3.7l-.7 3.8c-.1.3-.1.6-.1 1 0 .1 0 .5.1.7.1.2.2.4.3.5.5.6 1.1 1 1.7 1.3.3.1.7.3 1.3.2.3-.1.6-.4.7-.6.1-.2.1-.4.1-.5.1-.7.2-1.3.3-2 .2-1.3.2-2.6.3-3.9 0-1.3 0-2.6-.3-3.9-.1-.3-.2-.7-.3-1l-.3-.9c-.2-.6-.4-1.2-.5-1.9-.6-2.5-1.1-5-1.5-7.6-.2-1-.1-2.1.2-3.1.6.3 1.3.5 1.9.6.3.1.7.1 1 .1h1c1.3 0 2.5-.2 3.8-.3 5-.6 9.9-1.6 14.7-2.9 1.2-.4 2.4-.7 3.6-1.2 1.2-.4 2.4-1 3.5-1.7 2.2-1.3 4.2-2.8 6.1-4.4 1.9-1.6 3.8-3.2 5.6-5 .9-.9 1.8-1.8 2.6-2.8.4-.5.8-1 1.2-1.6.2.1.4.3.6.4.1 0 .1.1.2.1 5 1.4 9.9 2.9 14.2 5.5 4.3 2.5 7.7 6.2 9.6 10.7.4 1.1.8 2.3 1.1 3.5l.1.4v.4l.1.9.2 1.9c.3 2.6.5 5.1.7 7.7.3 4.7.5 9.4.5 14.1l-38.6.2c-13.2.2-26.6.4-40 .6zm4.7-30.4c-.3-.4-.4-.8-.4-1.1 0-.4.1-.7.3-1 .4-.5 1.2-.7 1.9-.6.7.1 1.5.5 1.8 1.1.2.3.2.6.1 1s-.4.7-.7 1.1c.4-.1.8-.4 1.1-.9.3-.4.3-1.1.1-1.6-.4-1-1.4-1.6-2.4-1.8-.5-.1-1-.1-1.5.1s-1 .5-1.2 1c-.2.4-.3 1-.2 1.5.3.6.7 1 1.1 1.2zM41 209.2c-.7-2.7-1.6-5.3-2.8-7.8-1.2-2.5-2.7-4.9-4.5-7-1.8-2.1-3.8-4.1-6.2-5.4 1.1.8 2.1 1.8 3 2.8 1 1 1.8 2 2.6 3.1 1.6 2.2 3 4.5 4.2 7 .6 1.2 1.2 2.4 1.6 3.7.5 1.2.9 2.6 1.4 3.8.4 1.3.7 2.6 1.1 3.9.3 1.3.6 2.7.9 4-.1-1.4-.3-2.7-.5-4.1-.2-1.3-.4-2.6-.8-4zm125.6-13.9c-1.8 1.9-3.3 4.1-4.5 6.4-1.2 2.3-2.2 4.8-3 7.3-.4 1.2-.6 2.5-1 3.8l-.6 3.9c.4-1.2.7-2.5 1.1-3.7.4-1.2.8-2.5 1.2-3.7.2-.6.5-1.2.7-1.8s.5-1.2.8-1.8c.5-1.2 1.1-2.3 1.7-3.5 1.2-2.2 2.6-4.4 4.2-6.4.8-1 1.7-1.9 2.6-2.9.9-.9 1.9-1.8 3-2.4-2.4 1.1-4.4 2.9-6.2 4.8z" fill="#005a83" stroke-width="none" opacity="1"></path></g><g id="svga-group-head" transform="matrix(1,0,0,1,0,0)"><g id="svga-group-ears-left-move" transform="matrix(1,0,0,1,0,0)"><g id="svga-group-ears-left"><path id="SvgjsPath13990" d="M61.3 90s-2.5-2.4-5.4-3.5-6.1.7-7.1 3.7c-1 2.9 1.3 15.1 5 19.5s6.2 4.8 8.7 2.5c2.5-2.3 7-10.8-1.2-22.2z" fill="#f0c7b1" stroke-width="none" opacity="1"></path><path id="SvgjsPath13991" d="M62.6 91.8c.4.6.8 1.3 1.2 1.9.4.6.7 1.4 1.1 2 .3.7.6 1.4.9 2.2.2.8.5 1.5.6 2.4.1.4.2.8.2 1.2l.1 1.2c0 1.7-.2 3.4-.7 4.9-.5 1.6-1.2 3-2.2 4.2-.2.3-.5.6-.8.8-.3.2-.6.5-.9.7-.6.4-1.3.7-2.1.8-.7.1-1.5 0-2.2-.3s-1.3-.7-1.8-1.2c-.6-.5-1.1-1-1.6-1.6s-.9-1.1-1.4-1.8c-1.7-2.6-2.6-5.7-3.4-8.7-.4-1.5-.8-3-1.1-4.6s-.6-3.2-.5-4.9c0-.4.1-.9.2-1.3.1-.2.1-.4.2-.6l.3-.6c.4-.7.9-1.3 1.5-1.8 1.2-1 2.6-1.4 4-1.2.7.1 1.4.3 2 .6.6.3 1.2.7 1.8 1.1 1.2.8 2.3 1.6 3.3 2.6l1.3 2zm-4.7-4.1c-.6-.3-1.2-.6-1.8-.8-.6-.2-1.2-.3-1.8-.3-1.2.1-2.3.6-3.3 1.4-.5.4-.9.9-1.2 1.5-.2.3-.3.6-.4.9-.1.3-.2.6-.2.9-.2 1.4-.1 3 .1 4.6.2 1.5.4 3.1.8 4.6.8 3 1.9 6 3.6 8.2.9 1.1 1.9 2.1 3 2.9s2.2 1.3 3.3 1.1c.5-.1 1.1-.3 1.6-.7.5-.4 1-.8 1.4-1.3.8-1 1.5-2.3 1.9-3.7.5-1.4.7-2.8.7-4.3s-.2-3-.4-4.5c-.6-3-2-5.8-3.7-8.2-1.3-.9-2.4-1.7-3.6-2.3z" fill="#e1ac8f" stroke-width="none" opacity="1"></path><path id="SvgjsPath13992" d="M52.6 89.6c3.3.6 5.4 6.1 6 9.8.1.1.1.2.2.3.4.6-.4 1.2-.8.6-.5-.8-1-1.6-1.8-1.9-1.4-.5-2.1 1.1-1.8 2.6.4 1.9 1.6 3 2.6 4.4.1.1 0 .3-.1.2-1.7-1-4.3-4.8-3.1-7.2.9-1.7 2.3-1.4 3.4-.4-.8-2.1-1.4-4.3-3-5.9-.5-.5-1.5-1.4-2.2-1.3-1.3.2-1.3 2.1-1.3 3.4-.1 1.7.1 3.4.4 5 0 .2-.2.2-.3.1-.7-2.4-2-10.4 1.8-9.7z" fill="#d19271" stroke-width="none" opacity="1"></path></g></g><g id="svga-group-ears-right-move" transform="matrix(1,0,0,1,0,0)"><g id="svga-group-ears-right"><path id="SvgjsPath13993" d="M138.7 90s2.5-2.4 5.4-3.5 6.1.7 7.1 3.7c1 2.9-1.3 15.1-5 19.5s-6.2 4.8-8.7 2.5c-2.5-2.3-7-10.8 1.2-22.2z" fill="#f0c7b1" stroke-width="none" opacity="1"></path><path id="SvgjsPath13994" d="M138.6 89.9c1.1-1 2.2-1.8 3.3-2.6.6-.4 1.2-.7 1.8-1.1.6-.3 1.3-.6 2-.6 1.4-.2 2.8.3 4 1.2.6.5 1.1 1.1 1.5 1.8l.3.6c.1.2.2.4.2.6.1.4.2.9.2 1.3.1 1.7-.2 3.3-.5 4.9s-.7 3.1-1.1 4.6c-.9 3-1.8 6-3.4 8.7-.4.7-.9 1.2-1.4 1.8-.5.6-1 1.1-1.6 1.6s-1.2.9-1.8 1.2c-.7.3-1.4.4-2.2.3-.7-.1-1.4-.4-2.1-.8-.3-.2-.6-.4-.9-.7-.3-.3-.6-.5-.8-.8-1-1.2-1.7-2.6-2.2-4.2s-.7-3.3-.7-4.9l.1-1.2c0-.4.1-.8.2-1.2.1-.8.4-1.6.6-2.4.3-.7.6-1.5.9-2.2.4-.7.7-1.4 1.1-2 .4-.6.8-1.3 1.2-1.9l1.3-2zm.1.1c-1.7 2.4-3 5.2-3.7 8.2-.3 1.5-.5 3-.4 4.5s.3 2.9.7 4.3 1.1 2.6 1.9 3.7c.4.5.8 1 1.4 1.3.5.4 1 .6 1.6.7 1.1.2 2.2-.3 3.3-1.1 1-.8 2.1-1.8 3-2.9 1.7-2.3 2.8-5.2 3.6-8.2.4-1.5.6-3.1.8-4.6s.3-3.1.1-4.6c0-.4-.1-.6-.2-.9-.1-.3-.3-.6-.4-.9-.3-.6-.7-1-1.2-1.5-.9-.8-2.1-1.3-3.3-1.4-.6 0-1.2.1-1.8.3-.6.2-1.2.5-1.8.8-1.4.6-2.5 1.4-3.6 2.3z" fill="#e1ac8f" stroke-width="none" opacity="1"></path><path id="SvgjsPath13995" d="M147.4 89.6c-3.3.6-5.4 6.1-6 9.8-.1.1-.1.2-.2.3-.4.6.4 1.2.8.6.5-.8 1-1.6 1.8-1.9 1.4-.5 2.1 1.1 1.8 2.6-.4 1.9-1.6 3-2.6 4.4-.1.1 0 .3.1.2 1.7-1 4.3-4.8 3.1-7.2-.9-1.7-2.3-1.4-3.4-.4.8-2.1 1.4-4.3 3-5.9.5-.5 1.5-1.4 2.2-1.3 1.3.2 1.3 2.1 1.3 3.4.1 1.7-.1 3.4-.4 5 0 .2.2.2.3.1.7-2.4 2-10.4-1.8-9.7z" fill="#d19271" stroke-width="none" opacity="1"></path></g></g><g id="svga-group-faceshape-wrap"><g id="svga-group-faceshape-single"><path id="SvgjsPath14074" d="M143.6 82c-1.2-30.1-20.8-46.6-43.6-46.6S57.6 51.9 56.4 82c0 .9-.1 1.9-.1 2.8 0 31.9 20.2 68.9 43.7 68.9s43.7-37 43.7-68.9c0-1 0-1.9-.1-2.8z" fill="#f0c7b1" stroke-width="none" opacity="1"></path><path id="SvgjsPath14075" d="M100 153.7c23.5 0 43.7-37 43.7-68.9 0-1 0-1.9-.1-2.8-1.2-30.1-20.8-46.6-43.6-46.6S57.6 51.9 56.4 82c0 .9-.1 1.9-.1 2.8 0 31.9 20.2 68.9 43.7 68.9zm-33.9-33.2c-1.4-3-2.7-6.1-3.8-9.2s-2-6.3-2.8-9.6c-3.1-12.9-3.4-27 1.8-39.4l1.1-2.2c.4-.7.7-1.5 1.1-2.2l1.3-2.1.7-1.1c.2-.3.5-.7.8-1 1-1.3 2-2.6 3.2-3.8.6-.6 1.1-1.2 1.7-1.8l1.9-1.6c5.1-4.2 11.2-6.8 17.5-8.1 1.6-.4 3.2-.5 4.8-.7.8-.1 1.6-.1 2.4-.1l2.4-.1c3.2.1 6.4.4 9.6 1.1.8.2 1.6.3 2.3.5l2.3.7 1.2.4 1.1.5 2.2.9c.7.3 1.4.8 2.1 1.1.7.4 1.5.7 2.1 1.2 1.3.9 2.8 1.7 4 2.8 5.1 4.1 9.3 9.4 12 15.5s4.1 12.8 4.4 19.6c.3 6.7-.5 13.5-2.2 20-1.6 6.5-4 12.8-7 18.8s-6.6 11.5-10.7 16.5c-2.1 2.5-4.4 4.8-6.8 6.8-2.5 2-5.1 3.7-8 4.9-2.8 1.2-5.8 1.9-8.8 1.9s-6-.7-8.8-1.9c-5.7-2.4-10.6-6.8-14.7-11.9-4.2-4.7-7.6-10.4-10.4-16.4z" fill="#c27b55" stroke-width="none" opacity="1"></path></g></g><g id="svga-group-mouth-single-move" transform="matrix(1,0,0,1,0,0)"><g id="svga-group-mouth-single" transform="matrix(1,0,0,1,0,3)"><path id="SvgjsPath13927" d="M83.27 121.2s.02 2.57 1.14 4.47c0 0 4.43 4.65 10.16 8.62.2.14 8.46 1.19 10.63.42 0 0 8.58-5.33 10.46-9.36 0 0 .68-1.99.42-3.36 0 0-6.51 1.81-9.58 2.26-3.07.46-10.9 0-14.79-.58s-7.45-1.97-8.44-2.47z" fill="#000000" stroke-width="none" opacity="1"></path><path id="SvgjsPath13928" d="M106.49 124.25c-3.07.46-10.9 0-14.79-.58-3.89-.58-7.45-1.97-8.44-2.47 0 0 .02 2.57 1.14 4.47 0 0 .07.07.2.19 1.55 1.1 3.76 2.37 6.36 3.07 5.18 1.4 15.57 1.95 22.72-1.97.6-.33 1.12-.65 1.61-.98.14-.22.26-.44.35-.66 0 0 .68-1.99.42-3.36.01.03-6.5 1.84-9.57 2.29z" fill="#ffffff" stroke-width="none" opacity="1"></path><path id="SvgjsPath13929" d="M116.59 121.71c.16-.21 0-.5-.29-.49-1.41.09-2.83.75-4.19 1.12-1.21.33-2.43.6-3.66.81-2.8.49-5.7.58-8.55.56-2.71-.02-5.47-.18-8.15-.64-2.86-.49-5.58-1.42-8.36-2.17-.23-.06-.45.18-.35.35-.22 1.29.09 3.51 1.08 4.51.01.02.01.04.01.06 2.47 3.41 6.31 6.36 9.85 8.67.05.03.11.05.15.06.03.03.05.06.09.08 3.26 1.3 7.51 1.03 10.94.64.24-.03.39-.14.49-.29 2.21-.83 4.29-2.93 5.91-4.48 1.5-1.44 3.68-3.28 4.47-5.26.3-.45.47-1 .58-1.52.13-.55.3-1.43-.02-2.01zm-3.16 5.08c-.97 1.13-2 2.2-3.09 3.23-1.53 1.44-3.49 2.55-5.01 3.98a.758.758 0 0 0-.4-.08c-1.95.17-3.9.27-5.87.2-1.4-.05-2.81-.23-4.21-.21-.03-.1-.09-.2-.21-.28-1.85-1.18-3.58-2.49-5.25-3.9-1.63-1.38-3.1-2.99-4.83-4.26-.12-.69-.47-1.33-.64-2.01-.15-.61-.17-1.2-.24-1.81 4.82 2.53 10.96 3.63 16.34 3.67 2.92.02 5.78-.37 8.62-.94 2.19-.44 5.17-.91 7.18-2.13-.03.33-.02.68-.07 1-.1.56-.32 1.04-.54 1.54-.67.57-1.18 1.32-1.78 2z" fill="#d19271" stroke-width="none" opacity="1"></path></g></g><g id="svga-group-eyes-left-move" transform="matrix(1,0,0,1,0,0)"><g id="svga-group-eyes-left"><g id="svga-group-eyesback-left"><path id="SvgjsPath14030" d="M89.5 94.7s-.9-1.9-2.9-3.3c-2-1.3-4.8-2.7-9-1.7-4.2 1-6.6 3.3-8.1 5.3 0 0 .4.5 1.4 1.1 1 .6 4.7 2.7 8.8 2.5 4.1-.2 7.8-2.5 8.5-2.9.7-.3 1.3-1 1.3-1z" fill="#ffffff" stroke-width="none" opacity="1"></path></g><g id="svga-group-eyesiriswrapper-left" transform="matrix(1,0,0,1,0,0)"><g id="svga-group-eyesiriscontrol-left" transform="matrix(1,0,0,1,0,0)"><g id="svga-group-eyesiris-left"><path id="SvgjsPath14172" d="M80.1 88.4c2.8 0 5.2 2.3 5.2 5.2s-2.3 5.2-5.2 5.2-5.2-2.3-5.2-5.2 2.3-5.2 5.2-5.2z" fill="#4e60a3" stroke-width="none" opacity="1"></path><path id="SvgjsPath14173" d="M80.1 90.8c1.5 0 2.8 1.2 2.8 2.8s-1.2 2.8-2.8 2.8-2.8-1.2-2.8-2.8 1.2-2.8 2.8-2.8z" fill="#000000" stroke-width="none" opacity="1"></path><path id="SvgjsPath14174" d="m79.4 91.3-.6-.6c-.2-.2-.4-.3-.7-.3-.2 0-.5.1-.7.3-.2.2-.3.4-.3.7s.1.5.3.7l.6.6c.2.2.4.3.7.3.2 0 .5-.1.7-.3.3-.5.4-1.1 0-1.4zm2.5 4.7c.9 0 .9-1.4 0-1.4s-.8 1.4 0 1.4z" fill="#ffffff" stroke-width="none" opacity="1"></path></g></g></g><g id="svga-group-eyesfront-left"><path id="SvgjsPath14038" d="M69.4 94.6c0 6.4 4.7 11.5 10.6 11.5s10.6-5.2 10.6-11.5S85.9 83.1 80 83.1s-10.6 5.1-10.6 11.5zm.1.5c1.5-1.9 4-4.3 8.1-5.3s7 .4 9 1.7c2 1.3 2.9 3.3 2.9 3.3s-.6.6-1.3 1.1c-.7.4-4.4 2.7-8.5 2.9-4.1.2-7.8-1.9-8.8-2.5-.9-.7-1.4-1.2-1.4-1.2z" fill="#f0c7b1" stroke-width="none" opacity="1"></path><path id="SvgjsPath14039" d="M89 91.7c-4.4-3.6-9.7-4.3-15-2.6-.2.1-.3-.2-.1-.3 5-2.2 11.3-.9 15.2 2.8.1 0 0 .1-.1.1z" fill="#e1ac8f" stroke-width="none" opacity="1"></path><path id="SvgjsPath14040" d="M68.9 96c.2-.2.5-.4.7-.6 5.1 5.2 15 4.5 20-.4 0 0 0 .1.1.1.1.2.4 0 .3-.2 0-.1-.1-.1-.1-.2.1-.1 0-.3-.2-.3-2.1-3.6-6.3-5.4-10.4-5.2-3.9.2-9.2 2.8-10.7 6.6-.2.3.1.4.3.2zm.9-.8c1.2-1.1 2.2-2.4 3.7-3.3 1.6-1 3.3-1.7 5.2-2 4.2-.7 8.4 1.3 10.6 4.8-2.8 2.1-5.9 3.6-9.5 3.7-3.9.1-6.7-1.3-10-3.2z" fill="#000000" stroke-width="none" opacity="1"></path></g></g></g><g id="svga-group-eyes-right-move" transform="matrix(1,0,0,1,0,0)"><g id="svga-group-eyes-right"><g id="svga-group-eyesback-right"><path id="SvgjsPath14031" d="M110.5 94.7s.9-1.9 2.9-3.3c2-1.3 4.8-2.7 9-1.7 4.2 1 6.6 3.3 8.1 5.3 0 0-.4.5-1.4 1.1-1 .6-4.7 2.7-8.8 2.5-4.1-.2-7.8-2.5-8.5-2.9-.7-.3-1.3-1-1.3-1z" fill="#ffffff" stroke-width="none" opacity="1"></path></g><g id="svga-group-eyesiriswrapper-right" transform="matrix(1,0,0,1,0,0)"><g id="svga-group-eyesiriscontrol-right" transform="matrix(1,0,0,1,0,0)"><g id="svga-group-eyesiris-right"><path id="SvgjsPath14175" d="M119.9 88.4c2.8 0 5.2 2.3 5.2 5.2s-2.3 5.2-5.2 5.2-5.2-2.3-5.2-5.2 2.4-5.2 5.2-5.2z" fill="#4e60a3" stroke-width="none" opacity="1"></path><path id="SvgjsPath14176" d="M119.9 90.8c1.5 0 2.8 1.2 2.8 2.8s-1.2 2.8-2.8 2.8-2.8-1.2-2.8-2.8 1.3-2.8 2.8-2.8z" fill="#000000" stroke-width="none" opacity="1"></path><path id="SvgjsPath14177" d="m119.3 91.3-.6-.6c-.2-.2-.4-.3-.7-.3-.2 0-.5.1-.7.3-.2.2-.3.4-.3.7s.1.5.3.7l.6.6c.2.2.4.3.7.3.2 0 .5-.1.7-.3.3-.5.4-1.1 0-1.4zm2.5 4.7c.9 0 .9-1.4 0-1.4s-.9 1.4 0 1.4z" fill="#ffffff" stroke-width="none" opacity="1"></path></g></g></g><g id="svga-group-eyesfront-right"><path id="SvgjsPath14041" d="M120 83.1c-5.9 0-10.6 5.2-10.6 11.5s4.7 11.5 10.6 11.5 10.6-5.2 10.6-11.5-4.8-11.5-10.6-11.5zm9.1 13.1c-1 .6-4.7 2.7-8.8 2.5-4.1-.2-7.8-2.5-8.5-2.9-.7-.4-1.3-1.1-1.3-1.1s.9-1.9 2.9-3.3c2-1.3 4.8-2.7 9-1.7s6.6 3.3 8.1 5.3c0 .1-.5.6-1.4 1.2z" fill="#f0c7b1" stroke-width="none" opacity="1"></path><path id="SvgjsPath14044" d="M111 91.7c4.4-3.6 9.7-4.3 15-2.6.2.1.3-.2.1-.3-5-2.2-11.3-.9-15.2 2.8-.1 0 0 .1.1.1z" fill="#e1ac8f" stroke-width="none" opacity="1"></path><path id="SvgjsPath14045" d="M131.5 95.8c-1.5-3.8-6.8-6.4-10.7-6.6-4.1-.2-8.3 1.6-10.4 5.2-.1 0-.3.2-.2.3 0 .1-.1.1-.1.2-.1.2.2.4.3.2 0 0 0-.1.1-.1 5 5 14.9 5.7 20 .4.2.2.4.4.7.6.1.2.4.1.3-.2zm-11.3 2.6c-3.6-.1-6.7-1.7-9.5-3.7 2.2-3.6 6.4-5.5 10.6-4.8 1.8.3 3.6 1 5.2 2 1.5.9 2.5 2.2 3.7 3.3-3.3 1.9-6.1 3.3-10 3.2z" fill="#000000" stroke-width="none" opacity="1"></path></g></g></g><g id="svga-group-facehighlight-single"></g><g id="svga-group-eyebrows-left-move" transform="matrix(1,0,0,1,0,0)"><g id="svga-group-eyebrows-left-rotate" transform="matrix(1,0,0,1,0,0)"><g id="svga-group-eyebrows-left" transform="matrix(0.8999996000000001,0,0,0.8999996000000001,7.855888700345602,8.21829573621062)"><path id="SvgjsPath13950" d="M65.5 85.3c.1-.5.4-.9.6-1.4.2-.5.5-1.1.8-1.5-.1-.2-.1-.5.1-.7.4-.6.8-1.1 1.2-1.8.3-.6.5-1.3.9-1.8.5-.7 1.8-.6 2.8-.4.5-.1 1.1-.1 1.6 0 .2 0 .9.1 1.3.3h.1c1.2-.2 2.4-.3 3.6.3.7 0 1.4 0 2.1.1 1.1.1 2.3.1 3.3.4H85.6c.7-.1 1.4-.1 2.2-.2h.1c.3-.1.5-.2.8-.3.2-.1.3 0 .4.1.1 0 .2-.1.3-.1.1 0 .2 0 .2.1.5-.2 1-.4 1.5-.5h.1c.2-.2.5-.1.4.2-.1.6-.3 1-.7 1.5-.3.4-.6.8-1 1.1.3 0 .7-.1 1-.1.1-.1.3-.2.4-.3.4-.4.9-.9 1.2-1.4.1-.2.4.1.3.2-.1.1-.2.2-.2.4v.1c0 .1-.1.1-.1.1v.2c-.2.7-.6 1.4-1.1 2 .1.1.1.2.1.3-.4 1.1-1.6 2.1-2.7 2.7-.2.1-.5.1-.6-.1-1.6.2-3.5.2-5.3.2-1.3 0-3 .1-4.2-.6-.8.1-1.7-.2-2.6-.4-1 .5-2.1.1-3.1-.2-.4-.1-.7-.3-1.1-.4-.3.1-.7.1-1.1.1h-.5c-.3.3-.6.5-1 .8-.5.3-1 .7-1.6.8h-.2c-.3.2-.6.4-.9.5-.1.2-.2.4-.4.6-.1.1-.2.1-.3.1-.2.2-.4.4-.7.4-.2 0-.3-.2-.3-.3 0-.5.3-.8.6-1.1z" fill="#2a232b" stroke-width="none" opacity="1"></path><path id="SvgjsPath13951" d="M84.8 84.3c1.4-.6 2.8-1 4.1-1.8 1.4-.8 2.5-1.9 3.7-3.1.1-.1.3 0 .2.2-1.6 2.4-4.8 4.8-7.8 5-.3.1-.4-.2-.2-.3zm.4.6c1.9-.4 3.6-.9 5.2-1.9.1-.1.2.1.1.2-1.5 1.2-3.4 2-5.3 2-.1-.1-.1-.3 0-.3zm-2.8-1.3c1.1-.7 2.2-1.3 3.3-2.1s1.9-1.8 2.8-2.7c.1-.1.2 0 .2.1-1.1 2.1-3.8 4.3-6.2 4.8-.2.1-.2-.1-.1-.1zm-5.6.7c2.6-1.4 5-2.5 6.5-5.2.1-.1.2 0 .2.1-1.2 2.6-3.8 4.6-6.6 5.3-.2 0-.3-.2-.1-.2zm-3.5-1.1c.7-.7 1.6-1.3 2.2-2.1.7-.9 1.1-1.9 1.7-2.8.1-.1.3-.1.2.1-.2 1.9-2.2 4.5-4 5.1-.1.1-.2-.1-.1-.3zm-2.6-.1c1.6-1.5 3-2.8 3.9-4.8.1-.1.3 0 .2.1-.7 2-1.9 4.1-3.9 5-.1 0-.3-.2-.2-.3zm-5.6 1.8c.9-.6 1.9-.9 2.9-1.3.8-.3 1.6-.7 2.5-.4.1 0 .1.2 0 .2-.9-.1-1.8.4-2.7.8-.8.3-1.7.8-2.6.9-.2.1-.3-.1-.1-.2z" fill="#3a353a" stroke-width="none" opacity="1"></path><path id="SvgjsPath13952" d="M64 87c-.2.2 0 .4.2.4h.1c.1.1.3.1.4 0 0-.1.1-.1.1-.1 1.1-.4 2.1-1.2 3-1.8.9-.5 1.8-1 2.6-1.7 2.9.8 6.2.9 9.2 1.2 2.9.2 6 .4 9 .2.1.1.2.1.3.1.1 0 .1-.1.1-.1h.3c.2 0 .2-.2.2-.3 2.1-1.5 3.5-3.7 3.7-6.3 0-.1 0-.1-.1-.1 0-.1-.2-.2-.3-.1l-1.2 1.2-.1.1c.3-.4.4-1 .5-1.5 0-.3-.3-.3-.4-.1-.2.6-.4 1.1-.8 1.6-.3.4-.9.8-1.1 1.2-.1.1 0 .2.1.2.2 0 .5-.1.7-.3h.1c.6-.2 1-.5 1.5-.9.2-.2.5-.5.7-.8-.6 2.3-1.9 4.2-3.9 5.4-1.6-.1-3.1-.1-4.7-.2 1-.5 2-1.3 2.7-1.9 1.3-1.1 2.3-2.5 3-4.1.7-.1 1.3-.3 1.9-.6.1-.1.1-.2-.1-.2-1 0-1.9.3-2.9.4-.9.1-1.8.1-2.7.1-1.8 0-3.6-.1-5.4-.3-3.6-.3-7.6-1.1-11.2-.7-.2 0-.3.2-.3.4-1.1 1.4-1.9 3-2.7 4.6-.7 1.4-1.6 3-2 4.5l-.5.5zm1.5-1.1c.6-1.2 1-2.4 1.6-3.6.8-1.5 1.6-2.9 2.3-4.5 2 .1 4 0 5.9.2 1.9.2 3.8.4 5.7.5 1.9.2 3.8.3 5.7.2.8 0 1.8-.1 2.7-.2-.9 1.4-1.9 2.6-3.2 3.6-.7.5-1.4 1-2.2 1.4-.6.3-1.2.4-1.7.8h-.9c1.6-.9 3.1-2.4 3.6-4.1.1-.2-.2-.3-.3-.2-.6.7-1.1 1.6-1.8 2.3-.7.7-1.5 1.3-2.3 1.9h-.7c-1.5-.1-3.1-.3-4.6-.4.9-.8 1.6-2 1.8-3.1 0-.1-.2-.2-.2-.1-.3.6-.6 1.2-1 1.7-.3.5-.8.9-1.2 1.3-1.1-.2-2.2-.4-3.3-.5.1-.1 0-.4-.2-.3-.2.1-.4.2-.7.3 0 0-.1 0-.1.1-1 .5-1.9 1.1-2.8 1.6-.8.4-1.4.7-2.1 1.1z" fill="#1b141c" stroke-width="none" opacity="1"></path></g></g></g><g id="svga-group-eyebrows-right-move" transform="matrix(1,0,0,1,0,0)"><g id="svga-group-eyebrows-right-rotate" transform="matrix(1,0,0,1,0,0)"><g id="svga-group-eyebrows-right" transform="matrix(0.8999996000000001,0,0,0.8999996000000001,12.154190996330243,8.239562377062981)"><path id="SvgjsPath13953" d="M134.5 85.3c-.1-.5-.4-.9-.6-1.4-.2-.5-.5-1.1-.8-1.5.1-.2.1-.5-.1-.7-.4-.6-.9-1.1-1.2-1.8-.3-.6-.5-1.3-.9-1.8-.5-.7-1.8-.6-2.8-.4-.5-.1-1.1-.1-1.6 0-.2 0-.9.1-1.3.3h-.1c-1.2-.2-2.4-.3-3.6.3-.7 0-1.4 0-2.1.1-1.1.1-2.3.1-3.3.4H114.4c-.7-.1-1.4-.1-2.2-.2h-.1c-.3-.1-.5-.2-.8-.3-.2-.1-.3 0-.4.1-.1 0-.2-.1-.3-.1-.1 0-.2 0-.2.1-.5-.2-1-.4-1.5-.5h-.1c-.2-.2-.5-.1-.4.2.1.6.3 1 .7 1.5.3.4.6.8 1 1.1-.3 0-.7-.1-1-.1-.1-.1-.3-.2-.4-.3-.4-.4-.9-.9-1.2-1.4-.1-.2-.4.1-.3.2.1.1.2.2.2.4v.1c0 .1.1.1.1.1v.2c.2.7.6 1.4 1.1 2-.1.1-.1.2-.1.3.4 1.1 1.6 2.1 2.7 2.7.2.1.5.1.6-.1 1.8.1 3.7.1 5.6.1 1.3 0 3 .1 4.2-.6.8.1 1.7-.2 2.6-.4 1 .5 2.1.1 3.1-.2.4-.1.7-.3 1.1-.4.4.1.7.1 1.1.1h.5c.3.3.6.5 1 .8.5.3 1 .7 1.6.8h.2c.3.2.6.4.9.5.1.2.2.4.4.6.1.1.2.1.3.1.2.2.4.4.7.4.2 0 .3-.2.3-.3-.3-.4-.6-.7-.9-1z" fill="#2a232b" stroke-width="none" opacity="1"></path><path id="SvgjsPath13954" d="M115.2 84.3c-1.4-.6-2.8-1-4.1-1.8-1.4-.8-2.5-1.9-3.7-3.1-.1-.1-.3 0-.2.2 1.6 2.4 4.8 4.8 7.8 5 .3.1.4-.2.2-.3zm-.4.6c-1.9-.4-3.6-.9-5.2-1.9-.1-.1-.2.1-.1.2 1.5 1.2 3.4 2 5.3 2 .1-.1.1-.3 0-.3zm2.8-1.3c-1.1-.7-2.2-1.3-3.3-2.1s-1.9-1.8-2.8-2.7c-.1-.1-.2 0-.2.1 1.1 2.1 3.8 4.3 6.2 4.8.2.1.2-.1.1-.1zm5.6.7c-2.6-1.4-5-2.5-6.5-5.2-.1-.1-.2 0-.2.1 1.2 2.6 3.8 4.6 6.6 5.3.2 0 .3-.2.1-.2zm3.5-1.1c-.7-.7-1.6-1.3-2.2-2.1-.7-.9-1.1-1.9-1.7-2.8-.1-.1-.3-.1-.2.1.2 1.9 2.2 4.5 4 5.1.1.1.2-.1.1-.3zm2.6-.1c-1.6-1.5-3-2.8-3.9-4.8-.1-.1-.3 0-.2.1.7 2 1.9 4.1 3.9 5 .1 0 .3-.2.2-.3zm5.6 1.8c-.9-.6-1.9-.9-2.9-1.3-.8-.3-1.6-.7-2.5-.4-.1 0-.1.2 0 .2.9-.1 1.8.4 2.7.8.8.3 1.7.8 2.6.9.2.1.3-.1.1-.2z" fill="#3a353a" stroke-width="none" opacity="1"></path><path id="SvgjsPath13955" d="M135.6 86.7c-.4-1.6-1.3-3.1-2-4.5-.8-1.6-1.6-3.2-2.7-4.6 0-.2-.1-.4-.3-.4-3.7-.5-7.6.3-11.2.7-1.8.2-3.6.3-5.4.3-.9 0-1.8-.1-2.7-.1-1-.1-1.9-.4-2.9-.4-.1 0-.2.2-.1.2.6.3 1.2.5 1.9.6.7 1.6 1.7 3 3 4.1.7.6 1.7 1.4 2.7 1.9-1.6.1-3.1.1-4.7.2-2-1.2-3.4-3.2-3.9-5.4.2.3.5.5.7.8.4.4.9.8 1.5.9h.1c.2.2.4.3.7.3.1 0 .2-.1.1-.2-.2-.5-.8-.8-1.1-1.2-.4-.5-.6-1.1-.8-1.6-.1-.2-.4-.2-.4.1 0 .5.2 1 .5 1.5l-.1-.1-1.2-1.2c-.1-.1-.3 0-.3.1l-.1.1c.2 2.6 1.6 4.9 3.7 6.3 0 .1 0 .3.2.3h.3c.1 0 .1.1.1.1.1.1.2 0 .3-.1 3 .2 6 0 9-.2s6.3-.3 9.2-1.2c.8.6 1.8 1.1 2.6 1.7.9.6 1.9 1.3 3 1.8 0 .1.1.1.1.1.1.2.3.2.4 0h.1c.2.1.4-.2.2-.4-.2-.3-.3-.4-.5-.5zm-3-1.9c-.9-.6-1.8-1.2-2.8-1.6 0 0-.1 0-.1-.1l-.6-.3c-.2-.1-.3.2-.2.3-1.1.1-2.2.3-3.3.5-.4-.4-.8-.8-1.2-1.3-.4-.6-.7-1.1-1-1.7-.1-.1-.2 0-.2.1.2 1.1.9 2.3 1.8 3.1-1.5.2-3.1.3-4.6.4h-.7c-.8-.6-1.7-1.2-2.3-1.9-.7-.7-1.2-1.5-1.8-2.3-.1-.2-.4 0-.3.2.5 1.7 2 3.2 3.6 4.1h-.9c-.5-.4-1.1-.6-1.7-.8-.8-.4-1.5-.9-2.2-1.4-1.3-1-2.3-2.2-3.2-3.6.9.1 1.8.2 2.7.2 1.9.1 3.8 0 5.7-.2 1.9-.2 3.8-.4 5.7-.5 2-.2 4-.1 5.9-.2.6 1.6 1.5 3 2.3 4.5.6 1.1 1 2.4 1.6 3.6-1-.4-1.6-.7-2.2-1.1z" fill="#1b141c" stroke-width="none" opacity="1"></path></g></g></g><g id="svga-group-beardwrap"><g id="svga-group-beard-single-move" transform="matrix(1,0,0,1,0,0)"><g id="svga-group-beard-single"><path id="SvgjsPath13940" d="M143.2 97.9c-.1-.2-.3-.3-.4-.3-.1-.4-.1-.8-.2-1.2l.6-3.9c.1-.4-.6-.5-.7-.1-.2.9-.4 1.7-.6 2.6-.1-.1-.2-.1-.4-.1v-.6c0-.2-.2-.2-.3 0-.2.7-.3 1.5-.5 2.2.1-.5.1-.9 0-1.4 0-.1-.1-.1-.2 0-.3.7-.2 1.4-.3 2.1v.4-.5c0-.2-.2-.2-.3 0-.3.8-.4 1.7-.4 2.6-.1.5-.2 1.1-.3 1.6 0 0-.1 0-.1.1-.2.4-.3.8-.3 1.2 0 0-.1 0-.1.1-.3.8-.5 1.8-.6 2.7v-.4c0-.1-.2-.1-.2 0-.2.9-.4 1.8-.5 2.8v-.2c0-.1-.2-.1-.2 0-.2.8-.3 1.8-.4 2.7.1-.7.1-1.4.1-2.2 0-.2-.2-.2-.3 0-.4 1.1-.5 2.4-.5 3.7 0 .1-.1.1-.1.2.1-.4.1-.9.1-1.3 0-.1-.2-.2-.2 0-.2.8-.4 1.5-.5 2.3 0 .1 0 .2-.1.4s-.1.3-.2.5c.1-.5.1-.9.1-1.4 0-.2-.2-.2-.3 0-.3.9-.4 1.9-.5 2.9l-.3.6c.1-.5.1-.9.1-1.4 0-.2-.2-.2-.2 0-.3.9-.4 1.9-.6 2.9 0 .1-.1.1-.1.2-.1.2-.2.3-.3.4.3-.9.6-1.8.6-2.7 0-.1-.2-.2-.3-.1-.1.2-.2.5-.3.7v-.1c0-.2-.2-.2-.2 0-.4 1-.6 2.1-.9 3.2-.1.2-.2.4-.3.7 0-.2 0-.4-.1-.7-.1-.1-.2-.2-.3 0-.1.7-.4 1.4-.6 2.1-.1.3-.3.7-.4 1.1 0 .1 0 .2-.1.2 0 .1-.1.1-.1.2 0-.2.1-.3.1-.5s-.2-.2-.3-.1c-.3.6-.5 1.2-.7 1.9v.1l-.6.9c.2-.6.4-1.2.5-1.9 0-.2-.2-.3-.3-.1-.4.7-.7 1.4-.9 2.2-.1 0-.2 0-.2.1-.5.8-.9 1.8-1.2 2.8l-.2.2h-.1c.3-.5.6-1 .7-1.5.1-.2-.2-.3-.3-.2-.5.4-.9 1.1-1.2 1.8-.3.5-.6 1.1-.8 1.6 0 .1-.1.2-.1.3.1-.4.2-.8.2-1.2 0-.1-.2-.2-.3-.1-.4.7-.7 1.5-1 2.3 0-.1.1-.2.1-.4 0-.1-.2-.2-.2-.1-.2.2-.3.5-.5.8 0-.2-.2-.2-.2-.1-.3.4-.6.9-.8 1.4 0-.1-.2-.2-.3-.1-.3.2-.5.6-.7.9 0-.1-.1-.2-.2-.1-.4.5-.7 1.1-.9 1.7 0 0-.1 0-.1.1.1-.2.2-.5.2-.7 0-.1-.2-.2-.2-.1-.3.4-.5.9-.7 1.4-.2.1-.4.3-.6.4.2-.3.3-.6.4-1 0-.1-.1-.2-.2-.1l-.9 1.2c0-.1-.1-.2-.2-.1-.3.4-.6.8-.8 1.3.1-.1.1-.3.2-.4 0-.1-.1-.2-.2-.1-.3.3-.6.8-.9 1.2 0-.1-.2-.2-.3-.1-.2.3-.4.7-.6 1.1-.1.1-.2.1-.3.2.1-.2.1-.4.2-.6 0-.1-.1-.2-.2-.1l-.6.9c-.1.1-.2.3-.2.4v-.1c0-.1-.2-.2-.3-.1-.1.1-.2.3-.2.4 0-.1.1-.2.1-.4 0-.1-.2-.2-.3-.1-.3.4-.5.9-.7 1.4h-.1c.2-.4.3-.8.4-1.3 0-.1-.1-.3-.2-.1-.3.4-.5.8-.7 1.3 0-.2.1-.3.1-.5 0-.1-.2-.2-.2-.1-.2.3-.4.6-.5.9 0-.1.1-.3 0-.4 0-.2-.2-.2-.3-.1-.2.3-.4.7-.5 1.1-.1 0-.1.1-.2.1 0-.2.1-.4 0-.5 0-.2-.2-.2-.3-.1-.2.3-.3.6-.4.9h-.1c.1-.3.2-.6.2-.9 0-.1-.1-.2-.2-.1-.3.4-.4.8-.6 1.3 0 0-.1 0-.1.1-.1 0-.1-.1-.2-.1.1-.3.1-.5.1-.8 0-.1-.2-.2-.3-.1-.2.3-.3.6-.4 1 0-.1.1-.3.1-.5 0-.1-.2-.1-.2-.1-.2.3-.3.6-.4 1-.1.1-.2.1-.3.1.1-.3.2-.6.2-.9 0-.1-.2-.2-.2-.1-.2.4-.4.8-.4 1.3-.1 0-.1.1-.2.1.1-.4.1-.8.1-1.2 0-.1-.2-.2-.3-.1-.2.5-.3 1-.4 1.6h-.2v-.5c0-.1-.2-.2-.2-.1-.1.2-.2.5-.2.7 0-.3 0-.7-.1-1 0-.1-.2-.1-.3 0-.1.3-.1.7-.2 1h-.1c0-.5.1-1 0-1.5 0-.1-.2-.2-.2 0-.2.6-.2 1.1-.3 1.7h-.2c-.1-.1-.2-.1-.2-.1v-.9c0-.1-.2-.2-.3 0-.1.3-.2.6-.2.9h-.1c0-.3 0-.6-.1-.9 0-.2-.2-.1-.3 0-.1.4-.2.8-.2 1.2-.2.1-.3.2-.4.4 0-.6.1-1.1 0-1.7 0-.1-.2-.2-.3 0-.2.5-.2 1.1-.2 1.7h-.2c.1-.5.1-1.1 0-1.6 0-.1-.2-.2-.3 0-.2.4-.2.9-.3 1.4h-.1v-1.3c0-.1-.2-.2-.2 0-.2.5-.2 1-.2 1.5.1-.6.1-1.2 0-1.7 0-.1-.2-.1-.2 0-.1.4-.2.9-.2 1.4h-.1c.1-.6.1-1.2.1-1.8 0-.1-.2-.2-.2 0-.2.6-.3 1.3-.4 1.9-.1.1-.2.1-.2.2.1-.6.2-1.3.2-1.9 0-.1-.2-.2-.2-.1-.2.5-.3 1-.4 1.5v-.9c0-.2-.2-.2-.3 0-.2.4-.2.9-.3 1.4l-.1-.1c0-.7.1-1.4.1-2.1 0-.1-.2-.1-.2 0-.2.6-.3 1.2-.3 1.8h-.1c0-.5 0-1-.1-1.4 0-.1-.2-.2-.3 0-.1.4-.2.9-.2 1.4-.1 0-.2 0-.2.1 0-.4 0-.7-.1-1.1 0-.1-.2-.1-.2 0-.1.2-.1.4-.1.7 0-.1 0-.3-.1-.4 0-.1-.2-.1-.3 0 0-.1-.2-.1-.2 0-.1.3-.1.5-.1.8 0 0-.1 0-.1-.1 0-.6-.1-1.2-.3-1.7 0-.1-.2-.1-.3 0v.4c0-.3-.1-.5-.1-.8 0-.1-.2-.1-.2 0-.1.3-.1.6-.1.9 0-.4-.1-.8-.1-1.2 0-.1-.2-.1-.3 0-.1.3-.1.7-.2 1.1v-.1c0-.4.1-.8.1-1.2 0-.1-.1-.1-.2 0-.2.4-.2.9-.3 1.3-.1-.1-.2-.1-.4-.2 0-.4-.1-.8-.3-1.1-.1-.1-.2-.1-.2.1v1.1c-.1 0-.2-.1-.2-.1 0-.6 0-1.2-.2-1.7 0-.1-.2-.1-.3 0-.1.4-.1.9-.1 1.5 0-.5 0-1.1-.2-1.5 0-.1-.2-.1-.3 0-.1.2-.1.4-.1.6 0-.2-.1-.5-.1-.7 0-.1-.2-.1-.2 0s-.1.3-.1.5c0-.2-.1-.4-.2-.5-.1-.1-.2-.1-.3 0-.1.3-.1.6 0 .9 0 0-.1 0-.1-.1 0-.6 0-1.1-.2-1.6 0-.1-.2-.1-.3 0-.1.4-.1.9-.1 1.4h-.3s-.1 0-.1-.1v-.3c0-.5 0-.9-.1-1.4 0-.1-.2-.1-.3 0-.1.4-.2.9-.1 1.4h-.1c-.1-.7-.1-1.4-.3-2 0-.1-.2-.1-.2 0-.1.4-.1.9 0 1.4-.1-.1-.1-.1-.2-.1-.1-.5 0-1-.1-1.5 0-.1-.2-.1-.2 0v.5c-.1-.2-.1-.4-.2-.5-.1-.1-.2-.1-.2.1 0 .3 0 .6.1.9 0 0-.1 0-.1-.1-.1-.6-.3-1.3-.5-1.8-.1-.1-.2-.1-.2.1 0 .4 0 .8.1 1.2 0-.2-.1-.4-.1-.6 0-.3 0-.6-.1-.9 0-.1-.2-.1-.2 0-.1.3-.1.7 0 1.1-.1-.6-.3-1.3-.5-1.9 0-.1-.2 0-.2 0-.1-.1-.1-.3-.1-.4-.1-.1-.2-.1-.2.1v.9c-.1-.2-.1-.4-.2-.6-.1-.1-.2-.1-.3 0v.6l-.1-.1c-.1-.5-.2-.9-.3-1.3-.1-.1-.3-.1-.3 0v.8c-.1-.6-.2-1.1-.4-1.6 0-.1-.2-.1-.2 0 0 .4 0 .9.1 1.4 0 0-.1 0-.1-.1-.1-.7-.3-1.5-.6-2.1-.1-.1-.3-.1-.3.1 0 .5 0 .9.1 1.4-.1-.7-.3-1.4-.5-2.1 0-.1-.2-.1-.2 0v1.2c-.1-.2-.1-.4-.2-.6-.1-.1-.2-.1-.2.1v.6h-.1c-.1-.4-.1-.7-.2-1.1 0-.1-.2-.1-.3 0v.4l-.3-.6c-.1-.1-.2-.1-.2 0l-.3-.9c-.1-.1-.2-.1-.2 0v.7c-.1-.5-.1-1-.2-1.4 0-.1-.2-.1-.2 0-.1.3-.1.6-.1.8 0-.1-.1-.1-.1-.2s-.1 0-.1 0c-.1-.5-.3-1.1-.4-1.6 0-.1-.2-.1-.2 0-.1-.4-.2-.8-.4-1.2-.1-.1-.2-.1-.2 0 0 .4.1.9.1 1.3-.1-.3-.2-.6-.4-.9-.1-.1-.2-.1-.2 0-.1-.2-.1-.4-.2-.5 0-.1-.1-.1-.1-.1-.1-.2-.2-.4-.2-.7-.1-.1-.3-.1-.3.1v.1c-.1-.2-.2-.4-.2-.6-.1-.1-.2-.1-.2.1v.1c-.1-.2-.2-.5-.3-.8 0-.1-.1-.1-.1 0-.1-.4-.3-.7-.4-1.1 0-.1-.2 0-.2.1 0 .3.1.7.2 1-.1 0-.2 0-.3.1-.1-.4-.3-.8-.5-1.1-.1-.1-.2 0-.2.1s.1.2.1.3l-.2-.2c-.1-.1-.1-.2-.2-.2-.1-.6-.3-1.1-.5-1.6-.1-.1-.2-.1-.2.1s0 .4.1.5c-.2-.3-.4-.6-.6-.8-.1-.4-.3-.8-.4-1.2 0-.1-.2 0-.2.1-.2-.5-.3-1.1-.6-1.6-.1-.1-.2-.1-.2.1s.1.4.1.6c-.1-.1-.1-.2-.2-.2-.1-.5-.3-1.1-.5-1.6-.1-.1-.2-.1-.2 0 0 .2 0 .4.1.6-.2-.3-.4-.6-.6-.8-.2-.6-.4-1.1-.8-1.6-.1-.1-.2-.1-.2.1v-.1c-.2-.8-.3-1.6-.6-2.3 0-.1-.2-.1-.2 0 0 .5.1.9.2 1.4l-.6-.9c-.1-.3-.3-.6-.4-.8 0-.1-.1-.2-.1-.3-.2-1-.4-2-.7-3 0-.1-.2-.1-.2 0v.4c0-.1-.1-.2-.1-.2-.1-.1-.2-.1-.2.1v.4l-.3-.6c-.1-.9-.3-1.8-.8-2.6 0-.1-.1-.1-.2 0-.1-.8-.3-1.7-.5-2.5 0-.1-.2-.1-.2 0v1.2c-.2-1.2-.3-2.4-.9-3.5l-.1-.1c-.1-.4-.2-.9-.4-1.3 0-.1-.2-.1-.2.1v.2c-.6-1.9-1.2-3.7-1.7-5.6-.4-1.7-.7-3.3-1.1-5 0-.2-.3-.1-.3 0v.6c-.1 0-.3 0-.4.1-.2-.9-.4-1.7-.6-2.6-.1-.4-.8-.3-.7.1.2 1.3.3 2.6.5 3.9-.1.4-.2.8-.2 1.2-.2 0-.4.1-.5.3-2.8 8.2-4 17.1-2.1 25.7 0 .2.1.3.2.3.5 6.7 1.7 13.4 3.4 19.9.1.2.4.1.4-.1-.9-3.9-1.6-7.9-2.2-11.8.4 2.1.9 4.2 1.5 6.3 1.3 7 4 13.7 7.4 20 1.1 2.3 2.4 4.5 3.8 6.6 3.1 6.1 7.2 11.6 12.1 16.3.2.2.4 0 .4-.2.1.1.2.2.3.4.2.2.4.1.6 0 2.3 2.5 5 4.7 7.8 6.5.2.2.5-.2.2-.4-1.7-1.2-3.2-2.6-4.7-4v-.2c1.6 1.6 3.3 3.1 5.1 4.5.1.1.3.1.4.1 1.7 1.3 3.7 2.3 5.7 2.9.2.1.3-.2.1-.3-.4-.2-.8-.5-1.2-.7.1 0 .2.1.3.1 1 .4 2.1.8 3.1.9l.1.1c.2.1.4 0 .5-.2.2.2.4.3.7.1.1 0 .1-.1.2-.1.1.1.3.1.5 0 .4-.2.8-.4 1.2-.7.1.1.3.1.4-.1l.8-.8c.1 0 .1-.1.2-.1.1.1.1.1.2 0l.6-.3c.1.1.3.1.4-.1l.3-.3.9-.6c0 .2 0 .3.1.4-1.3.9-2.7 1.6-4.3 2.1-.2.1-.1.4.1.3 1.8-.5 3.3-1.3 4.8-2.2 0 0 .1 0 .1-.1.1.2.3.3.5.2 2.1-1.3 4.2-2.8 6.2-4.6-.2.2.1.6.3.4 1.4-1.4 2.8-2.7 4.2-4.1-.3.4-.6.8-1 1.2-.1.2.1.4.2.2 2.3-2.4 4.2-5 5.8-7.8 2.2-3 4.1-6.2 5.8-9.6-.3.6-.5 1.1-.8 1.7-.2.4.3.7.6.3 5.4-7.4 8.8-16.4 10.8-25.5.2-.4.4-.9.6-1.4-.1.2-.1.5-.2.7-.1.3.3.4.4.1 1.4-3.8 2.3-7.7 2.7-11.6.3-1.6.6-3.2.7-4.8.3.1.6 0 .6-.4 1.8-9.1.6-18.1-2.2-26.3zm-83.8 42.5c0-.1.1-.1.1-.2-.1-.2-.1-.5-.2-.7.2.5.4.9.5 1.4.2.9.4 1.7.6 2.6-.4-1-.7-2-1-3.1zm11.8 25.7c-.1 0 0-.1 0 0-.3-.6-.5-1.2-.8-1.8.8 1.5 1.6 3 2.4 4.4-.6-.9-1.1-1.7-1.6-2.6z" fill="#2a232b" stroke-width="none" opacity="1"></path><path id="SvgjsPath13941" d="M55.5 104.9c.8-3.5 1.6-6.9 2.6-10.5.1-.3-.4-.5-.5-.2-2.9 6.2-4.6 13.8-4.5 20.7 0 .2.4.3.4.1.3-1.4.5-2.9.8-4.3-.4 4.5-.4 9.1.2 13.6 0 .3.6.2.6-.1-.2-6.4-.1-12.7.5-19.1 0-.1 0-.1-.1-.2zm1.6 13c0-.2-.3-.2-.4 0-.6 8.5-.4 17.1 1.5 25.4.1.3.5.2.5-.1-1-8.4-1.8-16.7-1.6-25.3zm.5 11.9c-.1 7.1 1.2 14.4 4 20.9.1.3.5.2.4-.1-2-6.9-3.4-13.6-4-20.8 0-.3-.3-.3-.4 0zm4.3 14c1.1 6.8 2.8 13.7 5.9 19.9.1.2.5.1.4-.2-2.2-6.6-4.5-13-5.8-19.8-.1-.4-.6-.2-.5.1zm6.6 17.2c-.9-3.1-2.4-6.6-2.2-9.9 0-.3-.4-.3-.4 0-.4 3.3.9 6.9 1.8 10.1 1 3.4 2.2 6.9 4.3 9.8.2.3.7.1.5-.3-1.5-3.2-3-6.3-4-9.7zm1.3-2c-.1-.3-.5-.2-.5.1 1 6.1 3 12.6 7.1 17.3.2.2.5-.1.3-.3-2.9-5.5-5.7-10.8-6.9-17.1zm5.3 9.5c-.1-.3-.6-.2-.5.1 1.3 4.6 3.3 9 6.3 12.7.2.2.5-.1.4-.3-2.5-4-4.7-8-6.2-12.5zm7 10.8c-1.1-1.7-2-3.6-2.8-5.5-.1-.3-.5-.1-.4.2 1.1 3.8 3.2 8.1 6.3 10.6.2.2.6 0 .4-.3-1-1.8-2.4-3.3-3.5-5zm1.3-.9c-.2-.3-.6 0-.5.3 1.5 2.7 3.2 5.6 5.3 7.8.2.3.7-.1.5-.4-1.5-2.6-3.6-5.1-5.3-7.7zm5.8 4.7c-.2-.4-.8 0-.6.3 1.2 1.9 2.5 4.1 4.3 5.6.2.2.6-.1.4-.3-1.3-1.9-2.9-3.6-4.1-5.6zm6.1 5.7c-.8-.9-1.6-1.9-2.3-2.9-.2-.4-.8 0-.6.4 1.3 2 2.9 4.3 5.1 5.3.2.1.4-.2.3-.4-.8-.9-1.7-1.6-2.5-2.4zm2.5.1c-.2-.3-.6 0-.5.3.4.8 1 1.6 1.7 2.1.2.1.4-.1.3-.3-.5-.6-1.1-1.3-1.5-2.1zm2.3.9c-.3-.3-.8.2-.5.5.3.2.5.5.8.7.2.1.4-.1.3-.3-.1-.4-.4-.7-.6-.9zm3.4-2.9c-.6 1-.8 2.2-1.1 3.2-.1.4.5.6.6.2.3-1.1.8-2.2.9-3.3 0-.2-.3-.3-.4-.1zm2.3 0c-.3 1-.5 1.9-1.3 2.7-.3.3.1.7.4.4.8-.8 1.5-1.9 1.3-3.1 0-.3-.3-.2-.4 0zm2.5.1c-.4.4-.8.9-1.2 1.4-.2.3.2.7.4.4.4-.5.8-.9 1.2-1.5.2-.2-.2-.5-.4-.3zm-51.5-70.2c0-4.5 0-9 .6-13.5 0-.2-.4-.3-.4-.1-.7 4.4-1.1 9-.7 13.5 0 .3.5.4.5.1zm1.1-6.4c-.9 4.2-1.1 8.7 0 12.9.1.3.5.2.5-.1 0 1.8.2 3.5.7 5.2.1.3.5.1.4-.1-.5-3.7-.8-7.1-.3-10.8 0-.3-.4-.4-.4-.1-.3 1.9-.5 3.9-.4 5.9-.5-4.3-.8-8.4-.2-12.7.1-.3-.3-.4-.3-.2zm2.7 12.1c-.7 4.1-.8 8.4.4 12.5.1.2.3.2.4 0 .2 1.8.5 3.6 1.1 5.3.1.3.5.2.4-.1-.7-3.2-1.2-6.2-1.2-9.5 0-.3-.5-.3-.5 0v3.6c-.6-4-.9-7.7-.3-11.7.1-.2-.3-.4-.3-.1zm4.5 21.6c-.4-2.5-.9-4.9-.8-7.4 0-.2-.4-.2-.4 0 0 2.5.1 5.1 1 7.5 0 .2.2.1.2-.1zm.1-2.5c.1 2.6.4 5.3 1.2 7.7.1.3.5.2.5-.1-.4-2.6-1-5-1.1-7.6-.1-.4-.7-.4-.6 0zm7.4 21.6c-.7-3.7-1.9-7.3-2.8-10.9-.1-.2-.4-.1-.4.1.6 3.7 1.2 7.5 2.7 11 .2.2.5 0 .5-.2zm.1-5.7c.5 3.2 1 6.6 2.2 9.6.1.3.6.2.5-.1-.7-3.2-1.7-6.3-2.3-9.5 0-.5-.4-.3-.4 0zm5.6 13.4c-.9-2.6-1.7-4.9-1.9-7.6 0-.3-.5-.3-.5 0 .1 2.6.6 5.5 2 7.8.1.1.4 0 .4-.2zm1.7 1.6c-.3-1.5-.8-2.9-1-4.5 0-.2-.4-.2-.4.1.2 1.5.4 3.2 1.1 4.5.1.3.3.1.3-.1zm.4-1.4c-.1.8 0 1.8.5 2.4.1.1.4.1.3-.1-.3-.8-.5-1.4-.4-2.3 0-.2-.4-.2-.4 0zm.9 1.4c0 1.4.2 3.1 1.2 4.2.2.2.5 0 .4-.2-.4-1.4-1-2.5-1.1-3.9-.1-.3-.5-.3-.5-.1zm11 13c-1.5-2.8-3-5.5-4.2-8.4-.1-.1-.3 0-.3.1 1 2.9 2.4 5.9 4.2 8.4.2.2.4 0 .3-.1zm2.2 1.1c-1.1-2.2-2.2-4.3-3-6.7-.1-.2-.4-.1-.3.1.7 2.4 1.6 4.8 3 6.8.1.2.4 0 .3-.2zm-.5-4c.5 1.9 1.1 4.1 2.3 5.7.2.2.5 0 .4-.2-.8-1.9-1.7-3.6-2.3-5.6 0-.3-.4-.1-.4.1zm4.2 6.2c-.3-1.5-.8-2.8-.8-4.4 0-.2-.4-.2-.4 0 0 1.5.1 3.2.8 4.5.1.2.4.1.4-.1zm.8-2.9c.1-.3-.4-.4-.4-.1-.2.8-.1 1.8.5 2.3.1.1.3 0 .2-.1-.1-.8-.4-1.3-.3-2.1zm1.1-.3c.1.9.1 2 .4 2.9.1.3.6.2.6-.1 0-1-.2-1.9-.4-2.9-.1-.3-.6-.3-.6.1zm7.7-4.5c0-.3-.5-.3-.5 0 0 2.1-.6 4-.8 6 0 .2.3.3.4.1 1-1.7 1-4.1.9-6.1zm2.3.5c-.1 1.1-.2 2.2-.4 3.3-.2.9-.5 1.7-.6 2.5 0 .3.4.4.5.1.9-1.7 1-4.1 1.1-5.9 0-.3-.6-.3-.6 0zm2 .2c-.2.9-.4 1.8-.7 2.6-.2.7-.5 1.4-.3 2.1 0 .1.2.2.3.1.4-.6.5-1.3.6-2 .2-.9.3-1.8.5-2.7.1-.3-.4-.4-.4-.1zm1.7 1.5-.3.6c0-.3 0-.6.1-.9 0-.2-.4-.3-.4-.1-.1.9-.3 1.7-.5 2.6-.1.4.4.6.7.3.5-.6.9-1.5.9-2.3 0-.3-.3-.4-.5-.2zm6.1-8.7c-1.9 2.5-3.4 5.2-5 7.9-.2.3.3.6.5.3 1.7-2.6 3.5-5.2 4.9-8 .1-.2-.3-.4-.4-.2zm2.2-1.9c-1.3 2.5-2.9 4.9-4.2 7.4-.1.2.1.4.3.2 2.1-1.9 3.4-4.9 4.2-7.5 0-.1-.2-.2-.3-.1zm2.6-1.4c-.8 2.9-1.7 5.4-3.8 7.6-.3.3.1.7.4.4 2.1-2.1 3.8-4.9 4-7.9-.1-.3-.5-.4-.6-.1zm6.8-14.4c-.8 1.4-1.4 2.9-1.9 4.5.1-1 .2-1.9.1-2.9 0-.3-.4-.4-.5-.1-.7 4-1.6 7.6-3.6 11.2-.2.4.4.8.6.4.7-1 1.2-2.1 1.7-3.2.1.1.3.1.4-.1 1.3-3.1 2.9-6.3 3.6-9.6.2-.3-.2-.5-.4-.2zm2.4-3.5c-.9 3.5-1.6 6.7-3.4 9.9-.2.4.4.8.7.4 1.8-3.1 3.3-6.6 3.3-10.2-.1-.4-.5-.4-.6-.1zm-75.3-46.2c.4-3 .7-6.4.2-9.3 0-.2-.3-.1-.3 0-.4 3-.3 6.2-.3 9.3.1.3.4.3.4 0zm1.6 3.5c.2-2.1.1-4.1.1-6.2.3 1.9.5 3.9.9 5.8 0 .1.1.1.1.1 0 2.8.2 5.6.8 8.3 0 .2.5.2.4-.1-.2-2.1-.4-4.2-.6-6.4.3 1.4.7 2.8 1.4 4.1.1.2.4.1.3-.2-1.1-2.7-1.8-5.2-1.8-8 0-.1-.1-.2-.2-.2v-.1c0-.3-.5-.3-.5 0v1c-.3-2-.7-4-1-5.9 0-.1 0-.1-.1-.1v-1.3c0-.3-.4-.3-.5 0-.1 3-.3 6.1 0 9.1.2.5.6.5.7.1zm6.8 23.2c-.5-3.1-1-6.1-1.1-9.3 0-.2-.4-.2-.4 0 0 3.1.2 6.3 1.1 9.4.1.3.4.2.4-.1zm.4-4.1c-.2 3.3 0 6.8 1.3 9.9.1.2.4.1.3-.1-.7-3.3-1.4-6.4-1.3-9.7 0-.4-.3-.4-.3-.1zm3.3 12.3c-.2-2.2-.6-4.4-1-6.6 0-.2-.4-.1-.3.1.3 2.2.5 4.4 1 6.5 0 .2.3.2.3 0zm1.1.3c.4 1.4.7 2.8 1.2 4.2.1.2.3.1.2-.1-.3-1.4-.8-2.8-1.1-4.2 0-.2-.3-.1-.3.1zm1.5 2.9c.4 1 .9 2 1.4 2.9.1.1.2 0 .2-.1-.3-1-.7-2-1.1-3-.2-.3-.6-.2-.5.2zm6.4 18.3c-.4-2.7-1.2-5.4-1.9-8.1-.1-.2-.4-.1-.3.1.5 2.7 1 5.5 1.9 8.1 0 .3.3.2.3-.1zm4 6.3c-1.4-2.9-2.5-5.6-2.9-8.8 0-.2-.4-.2-.3 0 .4 3.1 1.2 6.3 3 8.9 0 .2.3.1.2-.1zm4.2 5.1c-1.3-2.5-2.4-4.9-3-7.6 0-.2-.4-.1-.3.1.5 2.7 1.4 5.5 3 7.7.2.2.4 0 .3-.2zm2.4 3.1c-.6-2-1.4-3.9-1.9-6-.1-.3-.5-.2-.4.1.5 2 1 4.2 2 6.1.1.1.4 0 .3-.2zm.4-2c.2 1.3.8 2.6 1.6 3.6.1.1.3 0 .2-.2-.7-1.1-1.3-2.2-1.5-3.5 0-.3-.4-.2-.3.1zm3.5 4.2c.1.1.3 0 .2-.2-.4-.7-.9-1.4-1.4-2.1-.1-.2-.5 0-.3.2.5.7.9 1.5 1.5 2.1zm5.9-3.2c-.3-1.6-.9-3.1-1.4-4.6-.1-.1-.3-.1-.2.1.4 1.6.7 3.2 1.4 4.7-.1.2.2 0 .2-.2zm3.1 3.6c-.6-1.2-1.2-2.3-1.3-3.7 0-.2-.4-.2-.4 0 .1 1.4.5 2.8 1.4 3.9.2.1.3-.1.3-.2zm1.5-.7c0-.6-.1-1.1-.2-1.7 0-.2-.3-.1-.3.1.1.5.1 1.1.3 1.6 0 .1.2.1.2 0zm15.5-10.5c-.1 1.6-.4 3.4-.2 4.9 0 .1.2.1.3 0 .4-1.5.2-3.3.3-4.9 0-.2-.4-.2-.4 0zm15.3-21.4c.1 2.6-.2 5.3-.2 7.9 0 .2.3.2.3 0 .4-2.6.4-5.3.3-7.9-.1-.2-.4-.2-.4 0zm2.6-8.1c0-.3-.4-.3-.4 0-.1 1.9-.4 4-.4 6v-3c0-.3-.4-.3-.4 0 0 2.3-.1 4.6.1 7 0 .2.3.2.3 0 .1-1.2.1-2.5.1-3.8 0 .6 0 1.3.1 1.9 0 .2.3.2.3 0 .4-2.5.2-5.5.3-8.1zm.4-.2c-.1 1.5-.4 3.1-.2 4.6 0 .1.2.2.3 0 .4-1.5.3-3.1.4-4.7 0-.2-.5-.2-.5.1zm.7-1.4c0 1.3-.1 2.7 0 4 0 .2.4.2.4 0 .2-1.3.1-2.7 0-4 0-.3-.4-.3-.4 0zm1-1.2c.1.9.1 1.9.4 2.8.1.2.4.2.4-.1.1-.9-.1-1.9-.2-2.8 0-.2-.6-.3-.6.1zm1.1-8.1c.1 2.2.1 4.4.5 6.6.1.3.4.2.5-.1.1-2.1-.2-4.4-.3-6.5 0-.4-.7-.5-.7 0zm1.7-7c.2 2.5.2 5 .6 7.5 0 .3.4.2.4-.1 0-2.5-.3-5-.5-7.4 0-.3-.5-.3-.5 0zm1.5-4c0 .6 0 1.2-.1 1.8-.1-.7-.3-1.4-.4-2.1-.1-.3-.5-.2-.5.1.2 1.4.3 2.7.4 4.1.1 1.2 0 2.4.4 3.6.1.2.3.2.3 0 .2-.8.2-1.7.1-2.7.1 0 .1-.1.1-.1.3-1.5.1-3.2.1-4.7.1-.3-.4-.3-.4 0zm.7-9.9c0 .2.3.1.3 0-.6-4.9-1.8-9.8-3.8-14.2v-.7c0-.3-.5-.3-.5 0v.3c-.1.1-.1.2-.1.3 0 .1.1.2.1.3 0 1.8.2 3.6.8 5.2.1.2.4.1.4-.1-.1-.9-.3-1.7-.4-2.6 1.1 3.8 2.2 7.6 3.2 11.5zm.5 6c-.4-4.1-1.4-8.1-2.2-12.1-.1-.3-.5-.2-.5.1.5 3.1.9 6.1 1.5 9.2.2 2.5.3 5.1.7 7.5 0 .2.4.2.4-.1 0-1.5-.1-3-.3-4.4.2.1.4 0 .4-.2zm-6-12.5c-.2 6-.6 12.1-.6 18.1 0 .3.4.3.5 0 .4-5.7.4-11.5.6-17.2 0 .2.1.5.1.7 0 .1.2.1.2 0 0-2.1-.3-4.2-.4-6.3 0-.2-.4-.2-.4 0 .1 1.5.1 3 .3 4.4-.1 0-.3.1-.3.3zm-1.3 8.5c0-.3-.5-.3-.5 0-.2 4.2-.4 8.6-.1 12.8 0 .3.5.3.5 0 .1-4.2 0-8.5.1-12.8zm-2.1 13.3c.3-3.2.3-6.4.4-9.5 0-.2-.3-.2-.4 0-.1 3.2-.4 6.4-.4 9.5.1.2.4.2.4 0zm.6 5.4c0-.1-.1-.1-.2 0-.1.4-.2.8-.3 1.3-.1 0-.1.1-.1.2 0 .2 0 .4-.1.7-.2 1.1-.3 2.2-.3 3.3 0 .1 0 .1.1.1-.4 4.1-.8 8.1-1.2 12.2 0 .1.1.1.1 0 .9-5.4 1.4-10.9 1.8-16.3 0-.1 0-.1-.1-.1.2-.6.3-1 .3-1.4zm-2.8 10.4c-.3 3.7-.7 7.4-.8 11.2 0 .1.2.1.2 0 .5-3.7.6-7.4.9-11.2 0-.2-.3-.2-.3 0zm-1.4 5.8c-.5 2.5-1.1 5-1.4 7.5 0 .2.4.3.4.1.6-2.4.9-5 1.4-7.4 0-.4-.4-.5-.4-.2zm-3.3 5.1c-.6 2.2-1.4 4.5-1.8 6.8-.1.3.3.4.4.1.8-2.2 1.3-4.5 1.9-6.8 0-.3-.4-.4-.5-.1zm-4.6 14c1-2.9 1.8-5.9 2.6-8.8.1-.3-.3-.4-.4-.1-.8 3-1.7 5.9-2.4 8.9 0 .1.2.2.2 0zm-7.8 7.7c1.2-3.3 2.1-6.8 3.1-10.2.1-.2-.3-.3-.4-.1-1.1 3.4-2.2 6.8-3 10.2-.1.2.2.3.3.1zm-2.7 3.6c1-2.3 1.5-4.9 2-7.3.1-.3-.3-.4-.4-.1-.6 2.4-1.4 4.8-1.9 7.2-.1.2.2.4.3.2zm-2.3 1.4c1.1-2 1.8-4.4 2.5-6.6.1-.2-.3-.3-.4-.1-.8 2.2-1.8 4.3-2.5 6.5 0 .2.3.3.4.2zm-2 .8c.8-1.2 1.1-2.9 1.6-4.2.1-.2-.2-.2-.3-.1-.6 1.3-1.4 2.8-1.6 4.2.1.2.2.3.3.1zm-.6-2.6c-.6.8-1.2 1.8-1.1 2.7 0 .2.3.2.3.1.3-.9.5-1.7 1.1-2.5.3-.2-.1-.5-.3-.3zm-28.1-27.4c.2 2.8.7 5.6 1.8 8.2.1.2.4.1.3-.1-.8-2.7-1.5-5.2-1.8-8.1 0-.2-.3-.2-.3 0zm2.1 5.1c.2 2.2 1 4.4 2.5 6.1.1.1.3 0 .2-.1-1.2-1.9-2.1-3.7-2.3-5.9-.1-.3-.4-.3-.4-.1zm6.1 9c-.5-1.8-1.3-3.6-1.9-5.4-.1-.2-.4-.1-.4.1.6 1.8 1.1 3.7 2 5.4.1.2.3.1.3-.1zm.2-1.5c.2 1.1.4 2.3 1 3.3.1.1.3 0 .2-.1-.4-1.1-.8-2.1-.9-3.3 0-.2-.3-.1-.3.1zm3.3 5.5c-.2-.6-.5-1.2-.7-1.9-.2-.7-.2-1.5-.2-2.2 0-.2-.3-.2-.3 0-.1 1.4.1 3.1 1 4.3.1 0 .3-.1.2-.2zm.5-2.3c0 1.1.2 2.9 1.1 3.6.1.1.2 0 .2-.1-.1-.6-.5-1-.7-1.6-.2-.6-.3-1.3-.3-1.9 0-.3-.3-.3-.3 0zm2.8 3.5c-.1-1.2-.6-2.4-.9-3.5-.1-.2-.4-.1-.3.1.3 1.1.5 2.4.9 3.5 0 .1.3.1.3-.1zm5.6-.3c.1-.7-.2-1.6-.3-2.3 0-.3-.5-.3-.4 0 .1.8.1 1.6.3 2.4.2.2.4.1.4-.1zm.8-3c-.1 1-.1 2.1.2 3.1.1.1.3.1.3 0 0-1-.2-2-.1-3 .1-.4-.4-.4-.4-.1zm1.9 2.9c0 .2.4.2.4-.1.1-1.3 0-2.6.2-3.9 0-.3-.4-.4-.4-.1-.3 1.3-.5 2.7-.2 4.1zm2.1-1.7c.9-2 1.9-4 2.6-6.1.1-.1-.2-.2-.3-.1-1 2-1.8 4-2.6 6.1 0 .2.2.3.3.1zm4.7-7.3c-.9 2.1-1.6 4.2-2.4 6.3-.1.2.3.3.3.1.8-2.1 1.7-4.1 2.4-6.3.1-.2-.2-.3-.3-.1zm1.5-.7c-.5 2-1 3.9-1.8 5.8-.1.1.2.2.2.1.8-1.9 1.5-3.8 1.7-5.9.2-.1 0-.1-.1 0zm.2 4.8c1.1-2.4 1.8-4.9 2-7.6 0-.1-.2-.2-.3 0-.5 2.5-1.1 5-2.1 7.4 0 .3.3.5.4.2zm5.6-7c.3-1.1.7-2.3.9-3.5 0-.2-.2-.3-.3-.1-.4 1.1-.7 2.3-1 3.5-.1.2.3.3.4.1zm3.2-8.7c-.5 2.6-.9 5.1-1.6 7.7-.1.2.2.2.2.1.8-2.5 1.4-5.1 1.6-7.7 0-.2-.2-.2-.2-.1zm.7 5c.7-2.4 1.3-4.8 1.4-7.3 0-.1-.3-.2-.3 0-.4 2.4-.7 4.8-1.4 7.2-.1.2.2.3.3.1zm1.1-2.5c-.1.1.1.3.2.2 1.1-1.4 1.7-3.3 1.2-5.1-.1-.2-.4-.2-.3.1.1 1.8-.1 3.3-1.1 4.8zm1.9-3.8c.6-1.3 1-2.8.9-4.2 0-.1-.2-.1-.2 0-.1 1.4-.3 2.8-.9 4.1-.1.1.1.2.2.1zm8.5-21c.2-2.4.3-4.8.5-7.2 0-.2-.4-.3-.4-.1-.5 2.4-.7 4.9-.5 7.3 0 .3.4.3.4 0zm-2 5.1c.3-2.2.4-4.3.5-6.5 0-.2-.3-.2-.3 0-.2 2.2-.4 4.3-.4 6.5 0 .2.2.2.2 0zm-2 2.6c.5-1.9.7-3.9 1.1-5.8.1-.2-.3-.3-.4-.1-.4 1.9-.8 3.9-1 5.9-.1.2.2.2.3 0zm-4.5 6.8c1.5-2.4 2.6-5 3.4-7.8.1-.2-.2-.2-.2-.1-.9 2.6-2.1 5.2-3.3 7.7-.2.2 0 .4.1.2zM75.7 136c-.6-2.5-1-5-1.3-7.6 0-.2-.3-.2-.3 0 0 2.6.4 5.2 1.3 7.7 0 .2.3.1.3-.1zm2.7 3.3c-.2-1.6-.6-3.1-.9-4.7-.1-.2-.4-.1-.3.1.3 1.5.5 3.1 1 4.6 0 .2.2.2.2 0zm2 3.2c-.3-2.1-.8-4.2-1.3-6.3-.1-.2-.4-.1-.3.1.4 2.1.8 4.2 1.4 6.3 0 .1.3.1.2-.1zm1.5 1.2c-.6-1.5-1-2.9-.9-4.6 0-.3-.4-.3-.4 0-.1 1.6.1 3.4 1 4.7.1.2.4.1.3-.1zm.1-2.3c.1 1.5.3 3.1 1.2 4.3.1.1.3.1.3-.1-.5-1.4-1-2.7-1.1-4.2 0-.3-.4-.3-.4 0zm2.7 4.6c-.1-.3-.3-.6-.3-1-.1-.4-.1-.8 0-1.3 0-.2-.3-.4-.4-.1-.1.8-.1 1.9.5 2.5 0 .1.2 0 .2-.1zm.4-1.1c0 .6.1 1.1.5 1.4.1.1.1 0 .1-.1-.2-.4-.4-.9-.4-1.4.1-.1-.2-.1-.2.1zm.9.5c.2.8.4 1.6.7 2.3.1.2.4.1.3-.1-.1-.8-.4-1.6-.7-2.3 0-.2-.4-.2-.3.1zm4.5 5.3c-.1-1.4-.4-2.8-.7-4.2 0-.2-.4-.1-.4.1.3 1.4.4 2.8.8 4.1.1.1.3.1.3 0zm.6-1.2c.1 1.2.1 2.5.3 3.8 0 .1.2.1.2 0 .1-1.2-.1-2.5-.2-3.7 0-.3-.3-.3-.3-.1zm1.8 4.4c0-1-.2-2-.3-3 0-.2-.3-.2-.3 0 .1 1 .1 2.1.3 3.1 0 .1.3.1.3-.1zm1.3.3c.1-.9 0-1.7 0-2.6 0-.2-.2-.2-.2 0v2.6c0 .1.2.1.2 0zm5.4-.8c-.4-2-.9-3.9-.9-6 0-.3-.5-.3-.5 0 0 2.1.2 4.2 1.1 6.1 0 .2.3.1.3-.1zm1.8.8c-.2-1.8-.5-3.6-.7-5.4 0-.2-.4-.2-.3 0 .1 1.8.2 3.7.6 5.4.1.2.5.2.4 0zm1.2-.3c0 .1.2.1.2 0 .1-.9.1-1.9.1-2.8 0-.2-.3-.2-.3 0-.1 1-.1 1.9 0 2.8zm1.7-4.1c0 1.4 0 2.8.1 4.2 0 .2.2.2.3 0 .1-1.4.1-2.8.1-4.2-.1-.3-.5-.3-.5 0zm-33-21.3c-.2-.9-.6-1.8-.8-2.7s-.3-1.9-.5-2.8c-.1-.2-.4-.2-.4.1-.2 1.8.3 4.1 1.2 5.7.2.1.5 0 .5-.3zm-2.7-3.7c.3 1.2.7 2.3 1.3 3.4.1.1.3.1.3-.1-.6-2.8-1.4-5.4-1.6-8.3 0-.3-.5-.3-.5 0 0 1.2.1 2.5.3 3.8-.7-2.2-1.2-4.4-1.2-6.8 0-.3-.4-.3-.4 0-.1 2.7.3 5.6 1.6 8 0 .1.1.1.2 0zm-2.5-4.1c.1.3.1.6.2.8.1.3.6.2.5-.1-.4-2.7-1.1-5.3-1.4-7.9 0-.3-.5-.2-.5.1.1.9.2 1.9.3 2.8-.4-1.6-.7-3.2-.9-4.9 0-.3-.5-.3-.5 0 .2 3 .8 6.2 2.3 9.2-.1-.1 0-.1 0 0zm45.4 28.4-.3-2.4c0-.1-.2-.1-.2.1.1.8.2 1.6.4 2.3 0 .1.1.1.1 0zm1.8-1.9c0-1.1-.1-2.2-.2-3.2 0-.2-.4-.2-.4 0 .1 1.1.1 2.2.3 3.3 0 .1.3.1.3-.1zm1.6.1c.3-2.1.3-4.4.3-6.6 0-.3-.4-.3-.5 0-.1 2.1-.4 4.4-.2 6.5.1.2.4.3.4.1zm1.8-1.5c.3-2.1.1-4.4.1-6.5 0-.3-.5-.3-.5 0 0 2.2-.1 4.4.1 6.5.1.2.3.2.3 0zm2.4-2.3c.2-1.8.1-3.6-.1-5.4 0-.4-.6-.4-.6 0 .2 1.8.3 3.6.3 5.4.1.2.4.2.4 0zm9.4-15.3c.2-1.2.1-2.6 0-3.8 0-.3-.5-.3-.5 0-.1 1.2-.2 2.6 0 3.8.1.2.4.2.5 0zm2.1-3.3c.2-1.1 0-2.4 0-3.5 0-.3-.4-.3-.4 0 0 1.2-.2 2.4 0 3.5 0 .3.3.3.4 0zm.8-.4c.4-1 .4-2 .3-3.1 0-.3-.5-.3-.5 0 .1 1 0 2-.1 3 0 .2.3.3.3.1zm-44.7 16.6c-.4-1.5-1-2.9-1.3-4.5-.1-.3-.5-.2-.5.1.3 1.5.7 3.1 1.4 4.5.2.3.5.1.4-.1zm2.2 1.7c-.4-1.6-.8-3.2-.7-4.9 0-.2-.4-.2-.4 0-.1 1.7 0 3.5.9 5 .1.1.3 0 .2-.1zm1.7 1.5c-.3-1.6-.8-3.2-1-4.8 0-.3-.4-.3-.4 0 .1 1.7.3 3.4 1.1 5 0 .2.3 0 .3-.2zm1.5 1.7c-.2-1-.6-1.9-.7-3 0-.3-.4-.3-.4 0 .1 1 .2 2.2.8 3.1.1.2.4.1.3-.1zm1.3.6c.1.2.4.1.3-.1-.2-.8-.6-1.5-.9-2.2-.1-.3-.5 0-.4.2.4.7.7 1.4 1 2.1zm-10.6-7.1c0-1.1-.6-2.4-.9-3.5-.1-.2-.4-.1-.4.1.3 1.1.5 2.5 1.1 3.5.1 0 .2 0 .2-.1zm-1.7-3.1c.1 0 .1-.2 0-.2-.2 0-.2.2 0 .2zm21.3 9.8c-.1 0-.1.1 0 .1s.1-.1 0-.1zm-3.5-.6c0-.8-.3-1.8-.5-2.6-.1-.3-.5-.2-.5.1.1.8.2 1.8.5 2.6.2.2.5.1.5-.1zm1.3.9c-.1-.5-.3-.9-.4-1.4-.1-.5-.1-1.1 0-1.6 0-.2-.3-.2-.3 0-.2 1-.2 2.3.5 3.2.1 0 .3-.1.2-.2zm.8-.2c.2-.9.1-1.9 0-2.8 0-.2-.4-.2-.4 0 0 .9-.2 1.9 0 2.8.1.2.3.2.4 0zm1.1-.5c.1-.7 0-1.4 0-2.1 0-.2-.3-.2-.3 0 0 .7-.1 1.4 0 2.1.1.2.3.2.3 0zm2.4-2.3c0-.3-.4-.3-.4 0-.1.8-.3 1.6-.3 2.3 0 .2.3.2.3.1.3-.8.3-1.6.4-2.4zm1.1 3.1c.4-1.3.3-2.7.3-4 0-.2-.3-.2-.4 0-.1 1.3-.4 2.7-.2 3.9 0 .2.2.2.3.1zm1.5-1.2c.3-.9.3-2 .5-3 0-.2-.3-.4-.4-.1-.2 1-.5 2.1-.5 3.1 0 .2.3.2.4 0zm1.3 0c.1-.4 0-.9 0-1.4 0-.6.1-1.1.2-1.7.1-.2-.3-.4-.4-.1-.2.9-.5 2.2-.2 3.1.1.3.4.3.4.1zm2.2-1.9c.1-.6-.1-1.3-.1-1.9-.1-.4-.7-.4-.6 0 .1.6.1 1.3.3 1.9 0 .2.4.3.4 0zm7.8-6.5c.1-.5 0-1.1 0-1.6 0-.2-.2-.2-.2 0 0 .5-.1 1.1 0 1.6 0 .1.1.1.2 0zm1.8-.3c0-.8 0-1.6.3-2.3.1-.2-.3-.3-.3-.1-.2.8-.3 1.6-.1 2.4 0 .2.1.1.1 0zm1.9-1.1c.2-1 .2-2 .3-3.1 0-.2-.3-.2-.3 0-.1 1-.3 2-.2 3-.1.2.1.3.2.1zm1.2-1.8c.4-1.1.3-2.4.2-3.5 0-.2-.4-.2-.4 0 0 1.2-.1 2.3-.2 3.5 0 .1.3.1.4 0zm1.2-1.5c.2-1.4 0-3 0-4.4 0-.3-.4-.3-.4 0 0 1.4-.1 3 0 4.4.1.3.3.3.4 0zm.9-1.1c.2-1.3.1-2.7.1-4 0-.3-.4-.3-.4 0 0 1.3-.1 2.7.1 4-.1.2.2.2.2 0zm1.1-1.6c.2-.7.1-1.6.1-2.4 0-.2-.4-.2-.4 0 0 .8-.1 1.6.1 2.4 0 .1.2.1.2 0zm9.3-16.1c.1-.8 0-1.6-.2-2.4-.1-.3-.5-.2-.5.1 0 .8.1 1.6.4 2.4.1.1.3.1.3-.1zm1.5-1.9c.1-1.5 0-2.9.2-4.4 0-.3-.4-.4-.4-.1-.2 1.5-.4 3.1-.1 4.5 0 .3.3.2.3 0zm.9-2.8c.2-1.7.1-3.4 0-5.1 0-.3-.4-.3-.4 0 0 1.7-.1 3.4 0 5.1.1.3.3.3.4 0zm.9-2.5c.1-2.1 0-4.2.2-6.3 0-.3-.4-.3-.4 0-.2 2.1-.4 4.3-.1 6.3 0 .3.3.2.3 0zm1.8-11.4c0-.3-.4-.3-.4 0-.2 2.2-.2 4.5.4 6.6.1.2.4.2.3-.1-.2-2.2-.4-4.3-.3-6.5zm-.6 30.5c.1 1.4.1 2.8.2 4.1 0 .1.2.1.2 0 0-1.9-.2-3.7-.3-5.6 0-.1-.2-.2-.2 0 0 .5 0 1 .1 1.5 0-.3-.3-.3-.3-.1.1 1.6-.2 3.1-.5 4.6 0 .1.2.2.2.1.5-1.4.6-3.1.6-4.6zm-1.4 5.8c.4-2.1.5-4.4.7-6.6 0-.2-.3-.2-.3 0-.3 2.2-.7 4.3-.7 6.5 0 .3.3.3.3.1zm-1-3.8c-.3 1.9-.8 3.9-1 5.8 0 .1.2.1.2 0 .5-1.9.7-3.9 1-5.8.2-.1-.1-.2-.2 0zm-2.6 3.5c0-.2-.3-.2-.3 0-.2 1.9-.5 3.9-.4 5.8 0 .1.2.1.2 0 .3-1.9.3-3.8.5-5.8zm-1.8 8c.3-2.1.3-4.2.7-6.3 0-.2-.2-.2-.2-.1-.4 2-.9 4.2-.7 6.3-.1.2.1.3.2.1zm-1.4 2.1c.4-1 .6-2 .9-3 0-.2-.2-.2-.2-.1-.3 1-.7 2-.9 3-.1.2.1.2.2.1zm-2.5 3.4c.3-1.3.5-2.5 1-3.8.1-.1-.2-.2-.2-.1-.6 1.2-1.1 2.5-1 3.8 0 .3.2.3.2.1zm-57.7-15.8c-.1-1.6-.3-3.2-.3-4.9 0-.1-.2-.1-.2 0-.2 1.6-.2 3.3.2 4.9 0 .2.3.2.3 0zm1.2 1.4c-.4-1.3-.6-2.6-.5-3.9 0-.2-.2-.2-.2 0-.2 1.4-.1 2.7.5 4 0 .1.2 0 .2-.1zm.6 1.4c0-1.5-.3-3-.4-4.4 0-.2-.3-.2-.3 0 .1 1.5.2 3 .5 4.5-.1.1.2.1.2-.1z" fill="#1b141c" stroke-width="none" opacity="1"></path></g></g></g><g id="svga-group-mustache-single-move" transform="matrix(1,0,0,1,0,0)"><g id="svga-group-mustache-single"></g></g><g id="svga-group-nose-single-move" transform="matrix(1,0,0,1,0,0)"><g id="svga-group-nose-single" transform="matrix(1,0,0,1,0,2)"><path id="SvgjsPath14207" d="M105.06 106.65c.56.92 2.64 3.61 3.09 4.9.45 1.29-.13 3.22-1.48 3.61s-3.61-.39-3.93-.19c-.32.19-1.87 2.06-2.58 1.93-.71-.13-2.64-2.13-3.03-2.13-.39 0-2.13.45-2.97.45-.84 0-2.9-.71-2.64-2.51.26-1.81 2.45-5.54 2.9-6.06.45-.52 1.48-2.32 1.74-3.42s.58-7.03.71-8.38c.13-1.35 1.35-2.97 2.58-3.09 1.23-.13 3.35.77 3.55 2.9.19 2.13.58 6.38.77 8.12.19 1.74.58 2.71 1.29 3.87z" fill="#f0c7b1" stroke-width="none" opacity="1"></path><path id="SvgjsPath14208" d="M97.62 85.76c-.84 3.5-.96 7.24-1.34 10.81-.4 3.83-1.14 7.78-1.09 11.63 0 .31.48.39.55.07.78-3.52.88-7.26 1.24-10.84.39-3.82 1.1-7.79.98-11.63 0-.18-.29-.24-.34-.04z" fill="#c27b55" stroke-width="none" opacity="1"></path><path id="SvgjsPath14209" d="M94.46 106.19c-1.03 1.37-1.9 2.87-2.65 4.41-.49 1-1.09 2.17-.77 3.32.53 1.89 2.93 2.49 4.5 1.58.47-.27.26-.99-.27-1-.92-.01-1.98.28-2.72-.5-.88-.94-.01-2.63.38-3.57.58-1.39 1.28-2.72 1.83-4.12.07-.19-.2-.26-.3-.12z" fill="#c27b55" stroke-width="none" opacity="1"></path><path id="SvgjsPath14210" d="M94.31 113.98c2.84-.21 3.38 3.37 6.07 3.45 2.31.07 2.5-3.41 4.69-3.3.26.01.34-.35.13-.47-2.49-1.47-2.95 2.86-5.24 2.59-1.36-.16-2.32-2.16-3.54-2.73-.83-.39-1.43-.36-2.23.02-.22.09-.11.46.12.44z" fill="#c27b55" stroke-width="none" opacity="1"></path><path id="SvgjsPath14211" d="M104.29 115.6c1.87.42 4.05-.16 4.49-2.24.22-1.04-.13-2.07-.67-2.95-.89-1.44-2.03-2.66-2.87-4.15-.14-.25-.49-.12-.51.14-.11 1.67 1.13 2.83 2.02 4.12.82 1.19 1.53 2.83.15 4-.63.54-1.83.44-2.6.59-.26.04-.25.43-.01.49z" fill="#c27b55" stroke-width="none" opacity="1"></path><path id="SvgjsPath14212" d="M102.45 109.98c-.41-.74-1.47-.85-2.06-.26-.05.05-.24.29-.3.36-.07.09-.2.26-.23.29-.07.1-.12.21-.18.32l-.12.28c0-.01-.01.01-.03.05-.06.06-.12.13-.18.2-.18.19-.36.38-.5.6-.42.67-.08 1.42.48 1.84.87.65 2.13.13 2.74-.61.76-.89.96-2.03.38-3.07z" fill="#f8d5c3" stroke-width="none" opacity="1"></path></g></g><g id="svga-group-hair-front"><path id="SvgjsPath14142" d="M155.5 145.7c-1-.6-1.9-1.1-2.7-1.8 0-.1 0-.3-.1-.4-6.5-6.2-10.2-13.3-12.2-20.8 0-.6-.1-1.2-.1-1.8 0 .1.1.2.1.3.4 1.6.8 3.1 1.3 4.6.1.2.2.2.3.2.9 2.3 2.1 4.5 3.4 6.6.8 1.4 1.8 2.7 2.9 4 .1.1.2.1.3.1.6.7 1.2 1.3 1.8 2 .3.3.8-.2.5-.5-1-1.2-1.9-2.4-2.7-3.6-5.7-10-6.4-20.7-5.4-31.7 1.6-6.1 3.5-12.1 5-18.3 0-.2.1-.3.1-.5l.1-.1c1.1-3.2 1.7-6.4 1.9-9.7.2-1.3.3-2.6.3-4 .1-4.8-.1-11.5-3.1-15.8.1-.4 0-.8-.1-1.2-.5-1.1-1.1-2.2-1.7-3.1-1.8-5-4.9-9.6-8.3-13.6-1.4-1.7-2.9-3.2-4.4-4.5-5.4-5.8-12.9-9.8-21-11.2-13.7-2.3-35.4 2.3-35.2 19.7-7.2-2.2-15.4 1.3-20.2 6.8-2.8 3.2-4.5 6.9-5.4 10.9-2 4.6-2.7 9.6-2.2 14.7-.1 1.6.1 3.2.5 4.8.2 2.6.5 5.3.6 7.9 0 .2.3.3.4.1.4-.9.7-1.8.8-2.7.8 1.9 2 3.7 3.7 5.1l.1.1c.2.3.3.5.5.8.4.9.8 1.8 1.1 2.8l.3 1.2c-.1 0-.1.1-.1.2.2.5.3.9.5 1.4.7 3 1.4 5.9 2 8.9.9 7.2.2 14.2-.4 21.8 0 .3.2.5.5.5V126.5c-.1.5-.1 1-.2 1.4 0 .3.5.5.5.2.2-.8.4-1.6.5-2.3 5.4-11.5 2.4-24.1 1.3-36.3-1.4-15.5 2.5-31 19.4-33.9.3 0 .6.1 1 .2.6.1 1.1-.5.8-1-.1-.2-.3-.4-.4-.5.1 0 .2 0 .3-.1.1.2.1.3.2.5s.4.2.6 0c.2.2.3.4.6.6.5.5 1.5 0 1.4-.7h.5c.2.3.6.1.6-.2l.1-.1c.6.5 1.3.9 2.2 1 .4 0 .7-.5.6-.8.1 0 .1-.1.1-.1.7.8 1.5 1.4 2.4 2 .8.5 1.5-.5 1.1-1.2.5.4 1 .8 1.8 1 .5.2.9-.2 1-.6.1 0 .1.1.2.1.3.5.7 1.1 1.1 1.5.7.7 2 0 1.7-1 .5.6 1.6.6 1.8-.1.3.4.6.7 1 1 .6.4 1.7.2 1.6-.7 0-.3-.1-.6-.1-.9.2.5.5 1 .8 1.4.4.5 1.5.1 1.4-.6-.1-.7 0-1.4 0-2 .2-.1.4-.2.5-.3-.1.6-.1 1.3 0 1.9.2.9 1.7.9 1.8 0 .1-.7.3-1.4.7-2-.2.5-.3 1-.3 1.6 0 1 1.4 1.5 1.9.5.3-.5.6-1 1-1.5v.7c.1 1 1.2 1.3 1.8.5.5-.8 1.1-1.4 1.7-1.9-.3.4-.6.9-.7 1.4-.1.5.4 1 .9.7.2-.2.5-.3.8-.5.1.1.3.2.6.2 1-.2 2.1-.3 3.2-.3 4.1.3 7.4 2.1 10.3 4.8 2.6 4 4.4 8.8 5.4 12.8 1 4.2 1.1 8.4.6 12.5-4.3 14.1-9.2 32.2-2.8 46 1.1 4.7 3 9.2 6.1 13.2.2.2.5 0 .4-.2-1.9-3-3.3-6-4.3-9.1 1.4 2 3 3.9 5 5.7 1.6 1.5 3.4 2.8 5.5 3.9.8.4 1.6.1 2.1-.5 1.5 1 3.1 1.7 4.8 2.2.2.1.4-.1.4-.2.3.1.6.3.8.4.5.2.8-.2.7-.6.1 0 .1.1.2.1.2.1.3 0 .4-.1.3.1.6.3.9.4.1-.1.4-.7 0-.9zm-94.3-43.4c-.1-.6-.2-1.2-.4-1.8-.1-.9-.2-1.8-.3-2.6 0-.6-.1-1.2-.2-1.7-.2-1.2-.3-2.4-.4-3.5-.3-3.2-.2-6.4-.2-9.6v-.3c-.1 6.5.9 13 1.5 19.5zm8.5-60.8c-5.7 1.2-11.1 5.6-14.5 9.8 3.3-5.3 8.5-9 15.3-10-.3 0-.5.1-.8.2zm69.7 55.1c-.4 3.2-.7 6.4-.7 9.7-.1.7-.1 1.4-.2 2.1-.1-2.6-.1-5.1-.1-7.7.3-1.5.6-2.8 1-4.1zm1.9 4-.3 3c0 .1-.1.2-.1.3.1-2.1.3-4.2.5-6.2.2-.7.3-1.3.5-2-.2 1.7-.4 3.3-.6 4.9zM76.5 41.9c-.8-.5-1.8-.8-2.7-.8.9 0 1.8 0 2.7.1v.7zm5.8-9c-2.3 1.6-4.2 3.7-5.1 6C80 22.4 100.6 19 114.6 22.6c4.7 1.2 9.1 3.3 12.8 6-2.9-1.6-6.2-2.7-9.8-3.2-.6-.1-1.2-.2-1.8-.2-.4-.1-.8-.2-1.3-.3-9.6-2.2-25.8-.9-32.2 8zm11.9-4.3h-.3c-.9.1-1.8.2-2.8.4 7.5-3.2 17-3.2 24.7-2.3.4 0 .8.1 1.2.2.1 0 .2.1.4.1 7.3 2.3 14.2 6.5 19.2 12.1.1.1.1.2.2.4-.6-.6-1.2-1.1-1.8-1.6-5.2-6.1-13.4-9.9-21.1-10.9-6.4-1-13.3-.4-19.7 1.6zm42.2 94.5c.2.6.3 1.2.5 1.7.6 3.1 1.6 6.2 2.9 8.9-1.8-3.3-2.9-6.9-3.4-10.6zm3.6 5.8c-1.1-3.2-1.9-6.5-2.2-10 .4 2.1.9 4.2 1.5 6.2.4 1.8.9 3.7 1.6 5.5-.3-.5-.6-1.1-.9-1.7z" fill="#2a232b" stroke-width="none" opacity="1"></path><path id="SvgjsPath14143" d="M154 138.8c-6.8-4.1-10.6-9.5-12.7-15.6-2.8-10.1-2.3-20.6-.6-31.2 1.7-11 4-22.9-.3-33.6-.2-3.2-.7-6.3-1.9-9.3-4-9.9-14.2-16.1-24.7-15.4-8.8.6-22 5.4-24.3 14.9-.4.9-.5 1.8-.4 2.8v.8c0 .1.1.2.1.3.2 1.3.7 2.9 1.9 3.4.2.1.6-.2.3-.4-.2-.2-.3-.3-.5-.6v-.2c-.2-.2-.3-.5-.4-.7-.2-.6-.4-1.3-.5-1.9v-.6c.1 1.2.5 2.5 1.2 3.7.2.3.8.1.6-.2-.4-.9-.6-1.8-.7-2.7.2 1.1.6 2.2 1.2 3.2.1.2.6.1.5-.2-.1-.4-.3-.8-.4-1.1.2.1.3.2.5.3 0 .2 0 .4.1.6.1.3.7.3.6-.1v-.5c.1-.1.1-.2.1-.3.1 0 .3 0 .3-.2.1-2.1.6-4 1.4-5.7-.8 1.7-1.1 3.7-.8 5.9 0 .4.6.3.6-.1-.1-7.2 5-11.3 11.3-12.9-4.9 3-8.1 8.7-5.8 15.2.1.3.7.3.7-.1-.5-5.4.3-11.2 5.5-14.2l1.2-.6c-4.1 3.4-4.6 9.5-3.4 14.5.1.4.7.3.6-.1-.4-5.1-.3-11.4 4.8-14.3 1-.6 2.1-.9 3.2-1.1 1.5 0 3 .2 4.5.4 1.8.4 3.4 1.2 4.9 2.1-.6-.1-1.2-.1-1.8-.1-7-.2-16.2 4.5-15 12.6.1.5.8.3.8-.1.9-10.6 12.3-12.1 20.5-8.7 1 1.1 1.8 2.4 2.5 3.6.1.2.3.2.5 0 .4 1 .8 1.9 1.1 2.9-1.1-.8-2.3-1.6-3.5-2.2-1.7-.9-3.8-1.4-5.8-1.3-3.8-.3-7.9.6-9.3 4.4-.3.4-.6.8-.9 1.3-.3.5.4.8.7.4 1.1-1.4 2.4-2.3 3.9-2.9-.7.5-1.2 1.1-1.6 1.9-.2.4.3.7.6.4l1.2-.9c0 .1.1.2.1.2-.1 0-.1.1-.2.1-.3.2-.1.7.2.6.4-.1.8-.3 1.2-.4 0 .1.2.3.4.3 9.9-1.4 13.4 5.1 14.6 13.2v1.4c0 .1.1.2.2.2.7 6.3.2 13.4.3 18.2-3.2 19.1-4.4 47.9 17.8 55.8.3.1.6-.5.2-.6-6.7-3-11.2-7.9-14.1-13.8l.6.9c1.1 2.1 2.5 4 4.2 5.8.2.2.7-.1.5-.4-.1-.2-.2-.3-.3-.5.3.3.7.6 1 .9.2.2.5-.1.3-.3-1.3-1.3-2.4-2.6-3.4-4-6.9-12.1-6.6-25.6-3.1-39.3.4-1.5.8-2.9 1.2-4.3-.2 4.2-.6 8.4-.7 12.6-.3 9.4.7 20.5 5.7 28.8.6 1.1 1.2 2.3 1.9 3.4.1.2.4 0 .3-.2-.1-.1-.1-.2-.2-.3 2.2 2.8 5 5.1 8.6 6.7.1.3.4-.3.1-.5zM92.8 53c-1.7-2.5 3.2-9.2 4.2-10.3 1.2-1.2 2.5-2.2 4-3l1.2-.3c-5.4 2.8-9.6 7.8-9.4 13.6zm3.4-6.1c3.1-4.9 9.1-7.7 15.4-7.8h1.3c-6 .4-13.4 2.8-16.7 7.8zm32.2 9.3c1.5.9 2.9 2.2 4 3.7 0 .4.1.9.1 1.4-1-2-2.4-3.7-4.1-5.1zm.8-10.9c-1.1-1-2.2-2-3.5-2.8-4.8-4.2-10.8-6.9-17.3-6.6 6-1.5 12.4-1.2 17.9 1.9 6.8 3.7 10 9.4 11.5 15.8-2.1-3.4-5.1-6.3-8.6-8.3zm4.1 7.2c1.1 1.9 2.1 4 2.9 6.1-.3-.4-.6-.9-.9-1.3-.4-1.3-.9-2.6-1.5-3.9-.1-.3-.3-.6-.5-.9zm1.9 20.6c-.1-3.1-.5-6.2-1.5-9v-2.2c.3.5.5 1 .8 1.5.2.5.4 1.1.6 1.6.2 2.7.2 5.4.1 8.1zm-2 26c0-.3.1-.6.1-1 .6-4.9 1.5-9.9 2.4-14.7.1 0 .2-.1.2-.2 1-3.5 1.7-7.1 1.7-10.8.3 2.1.4 4.1.5 6.2-1.1 7-3.4 13.6-4.9 20.5zm5.7-28.9c-.4-2.3-1-4.5-1.8-6.6.1 0 .2-.1.2-.2 0-.7-.1-1.3-.2-1.9.1.2.2.4.4.6.7 2.7 1.2 5.4 1.4 8.1zm-2.1-13.4c-.6-1.5-1.3-2.9-2.1-4.2 1.8 2.2 3.1 4.7 4 7.3.1 1 .1 2.1.2 3.1-.5-2.1-1.2-4.2-2.1-6.2zm3 24c.4-2.1.6-4.3.7-6.5 0-1.4-.1-2.7-.2-4.1 0-.9.1-1.8.1-2.7v-1.6c.8 4.9.8 10 .4 14.7-.4 4.8-1 9.6-1.5 14.4.2-4.8.5-9.6.5-14.2zM78.9 55.4c.2.1.1.5-.2.4-6.3-2.1-12.5.8-16.4 5.8-3.9 4.8-4.8 10.5-4.9 16.5 0 .2-.3.2-.3 0-1-10.9 8.4-28.7 21.8-22.7zm8.3-2.2c0 .4-.6.4-.6 0-.6-12.2 10.5-20 21.6-21.6 11.9-1.7 26.9 1 34.4 11.3 8.7 11.8 8.1 28 3.6 41.2-2.7 8-5 15.7-4.7 24.2.3 8.7 2.9 17 7.1 24.6.2.3-.3.6-.5.3-6-9.8-8.5-21.5-7.1-33 .7-6 2.8-11.5 4.7-17.1 2.4-7.1 3.5-14.3 2.6-21.8-.9-7.5-3.4-15.4-8.9-20.8-5.1-5.1-12.6-7.3-19.6-8.1-14.2-1.6-32.5 3.8-32.6 20.8zm-3.7-.4c0 .2-.4.3-.4.1-2.4-14.5 11.3-24.5 24.1-26.4.3 0 .4.3.1.4C94.2 29.8 82.7 38 83.5 52.8zM81.4 51c0 .2-.3.3-.3.1-2.2-6 .2-12.2 4.4-16.8.2-.2.5.1.3.3-3.6 4.9-6.2 10.1-4.4 16.4zm-3.5-6.3c-.2-9 7.4-15 15.2-17.5.2-.1.4.3.2.4-7.5 3.2-14.6 8.2-15.1 17.1 0 .2-.3.2-.3 0zm2.6 9.4c.2.2-.1.6-.3.4-7.5-5.4-20.7 2.7-24.6 9.7-4.5 8.1-1.8 17.8.6 26.1 3.6 12.6 8.4 26.5 1.1 38.7-.2.4-.8 0-.6-.4 5.4-10.1 3.5-21.2.5-31.8-2.4-8.2-5.8-17-4.7-25.7 1-7.8 5.7-12.6 12.3-16.3 4.9-2.7 11-5.1 15.7-.7zm-26.6 8c2.6-8.4 14.1-19.3 23.2-12.5.2.2 0 .6-.2.4-9.5-5.3-19.3 3.9-22.6 12.2-.1.3-.5.2-.4-.1zm13-16c3-1.6 7.2-2.1 9.4 1.1.1.1-.1.3-.2.1-2.3-3-6-2-9-.9-.2.1-.4-.2-.2-.3z" fill="#1b141c" stroke-width="none" opacity="1"></path><path id="SvgjsPath14144" d="M138 41.5c-.2-.2-.4.1-.3.3 7.5 9.6 10.3 21 8.6 33-.1.4.5.5.6.2 3-12-.7-24.7-8.9-33.5zm7 19.1c0-.1-.3-.1-.2 0 1 10.8.1 21.2-2.1 31.8-.1.3.3.4.4.1 3-10.3 3.5-21.2 1.9-31.9zm-10.5-17.4c-6.2-7.3-17.7-10.8-26.9-9-7.9 1.5-20 7.6-19.5 17 0 .5.7.5.7 0 .3-11.9 18.7-17.6 28.2-15.9 5.1.9 10.4 3.3 14.4 6.7 5 4.1 6.9 10.7 8.1 16.8 2.3 12-.2 23-3.4 34.5-2.4 8.8-4.3 17.8-1.5 26.8.1.3.6.2.5-.1-3.8-15.2 4.1-28.9 6.1-43.7 1.3-10.2.4-24.9-6.7-33.1zM79 54.2c-11.2-2-18.8 8.6-20.2 18.5-2 14.5 5 28.3 2.3 42.7.6-7.4-.4-14.9-2.9-22 0-.1-.3-.1-.2.1 3.9 12.6 3.4 25.4-1.1 37.8-.1.2.2.3.3.1 1.7-4.1 2.9-8.4 3.5-12.7l.1-.1c4.4-11 .5-22.7-.9-34-1.6-12.9 2.2-31.1 19-29.7.4-.1.4-.6.1-.7zm-1.7-3.9C67 47.2 57.7 54.6 54.2 63.9c-.1.2.2.3.3.1 4.3-9.1 12.2-15.3 22.7-13.3.3.1.4-.4.1-.4zM76 45.8c-7.6-1.5-13.7-.7-18.6 5.7-4.1 5.3-5.8 11.9-4.8 18.4 0 .2.3.1.3 0-.4-5.6.6-11.4 3.7-16.2 4.7-7.3 10.9-8.6 19.2-7.4.4.1.5-.4.2-.5zm53.1-9C114 22.1 87 31 84.2 52c0 .3.4.4.4.1 5-20.5 27.6-28.5 44.2-15.1.2.2.4 0 .3-.2zm-46.1 6c-1.7 2.2-3.4 5-1.7 7.6.1.2.4 0 .3-.2-1.5-2.5.2-5.1 1.6-7.3 0-.1-.1-.2-.2-.1zm68 99.8c-8.2-9.9-13.3-21.4-13.5-34.3 0-.2-.2-.2-.2 0-.1 12.8 4.3 25.5 13.5 34.6.1 0 .3-.2.2-.3zm-3.6-1.5c-5.2-3.4-9.1-7.7-11.4-13.6-.1-.3-.5-.2-.4.1 1.9 5.9 6 11.1 11.6 13.8.2.2.4-.1.2-.3z" fill="#3a353a" stroke-width="none" opacity="1"></path></g><g id="svga-group-glasses-single-move" transform="matrix(1,0,0,1,0,0)"><g id="svga-group-glasses-single" transform="matrix(1.1500006000000005,0,0,1.1500006000000005,-15.022560318882796,-14.506170504613536)"><path id="SvgjsPath14106" d="m77.6 101.2-.1-.2 12.6-11 .1.2-12.6 11zm3.9 4.6-.2-.2 9.8-8.5.2.2-9.8 8.5zM75 97.4l-.1-.2 9.8-8.5.1.2-9.8 8.5zm3.4-.5-.2-.2 9.9-8.5.1.2-9.8 8.5z" fill="#ffffff" stroke-width="none" opacity="0.67"></path><path id="SvgjsPath14107" d="m122.4 101.2.1-.2-12.6-11-.1.2 12.6 11zm-3.9 4.6.2-.2-9.8-8.5-.2.2 9.8 8.5zm6.5-8.4.1-.2-9.8-8.5-.1.2 9.8 8.5zm-3.4-.5.2-.2-9.9-8.5-.1.2 9.8 8.5z" fill="#ffffff" stroke-width="none" opacity="0.67"></path><path id="SvgjsPath14108" d="M83.9 85.9c5.9 0 10.7 4.8 10.7 10.7s-4.8 10.7-10.7 10.7-10.7-4.8-10.7-10.7S78 85.9 83.9 85.9z" fill="#ffffff" stroke-width="none" opacity="0.28"></path><path id="SvgjsPath14109" d="M116.1 85.9c5.9 0 10.7 4.8 10.7 10.7s-4.8 10.7-10.7 10.7-10.7-4.8-10.7-10.7 4.8-10.7 10.7-10.7z" fill="#ffffff" stroke-width="none" opacity="0.28"></path><path id="SvgjsPath14110" d="M83.9 85.4c-4.7 0-8.7 2.9-10.4 7-.6 0-1.9-.1-2.8.1l.1 2.8 2.1-.1c-.1.5-.1.9-.1 1.4 0 6.2 5 11.2 11.2 11.2s11.2-5 11.2-11.2-5.1-11.2-11.3-11.2zm0 21.4c-5.6 0-10.2-4.6-10.2-10.2s4.6-10.2 10.2-10.2S94.1 91 94.1 96.6s-4.6 10.2-10.2 10.2z" fill="#26120b" stroke-width="none" opacity="1"></path><path id="SvgjsPath14111" d="M83.9 85.4c-2.2 0-4.4.7-6.2 2-1.8 1.3-3.2 3.1-4 5.1l-.1.1h-.2c-.9 0-1.9 0-2.8.1l.2-.2.1 2.8-.2-.2H73v.2c-.3 2.2.1 4.5 1.1 6.5.5 1 1.2 1.9 2 2.7.8.8 1.7 1.4 2.7 2 2 1 4.3 1.4 6.5 1.1s4.3-1.2 5.9-2.7c.8-.7 1.5-1.6 2.1-2.5s1-2 1.3-3c.6-2.1.4-4.4-.3-6.5-.7-2.1-2.2-3.9-4-5.2-.9-.6-1.9-1.2-3-1.5-1.2-.6-2.3-.7-3.4-.8zm0 0c1.1 0 2.3.2 3.3.5 1.1.3 2.1.8 3.1 1.4 1.9 1.3 3.4 3.1 4.3 5.3.4 1.1.7 2.2.8 3.4.1 1.2 0 2.3-.3 3.4s-.7 2.2-1.3 3.2c-.6 1-1.3 1.9-2.2 2.6-1.7 1.5-3.9 2.5-6.2 2.7-2.3.2-4.6-.2-6.6-1.3-1-.6-1.9-1.2-2.7-2.1-.8-.8-1.5-1.7-2-2.7-1.1-2-1.5-4.3-1.3-6.6l.2.2-2.1.1h-.2v-.2l-.1-2.8v-.2h.2c1-.2 1.9-.1 2.9-.1l-.2.1c.8-2.1 2.4-3.9 4.3-5.1 1.6-1.2 3.9-1.8 6.1-1.8z" fill="#070201" stroke-width="none" opacity="1"></path><path id="SvgjsPath14112" d="M83.9 106.8c-2.7 0-5.4-1-7.3-2.9-2-1.9-3.1-4.6-3.1-7.3s1.2-5.4 3.1-7.3 4.6-3.1 7.3-3.1 5.4 1 7.4 3c2 1.9 3.1 4.6 3.1 7.4 0 2.7-1.2 5.5-3.1 7.3-2.1 1.9-4.7 3-7.4 2.9zm0 0c2.7 0 5.3-1.2 7.1-3.1 1.8-1.9 2.9-4.5 2.8-7.1s-1.1-5.2-2.9-7.1-4.4-3-7.1-3c-2.6 0-5.3 1-7.2 2.9-1.9 1.9-2.9 4.5-2.8 7.2 0 2.6 1.1 5.2 2.9 7.1 1.9 1.9 4.5 3.1 7.2 3.1z" fill="#070201" stroke-width="none" opacity="1"></path><path id="SvgjsPath14113" d="M104.9 96.6c0 6.2 5 11.2 11.2 11.2s11.2-5 11.2-11.2c0-.5 0-.9-.1-1.4l2 .1.1-2.8c-.9-.2-2.2-.1-2.8-.1-1.7-4.1-5.7-7-10.4-7-6.2 0-11.2 5-11.2 11.2zm1 0c0-5.6 4.6-10.2 10.2-10.2s10.2 4.6 10.2 10.2-4.6 10.2-10.2 10.2-10.2-4.6-10.2-10.2z" fill="#26120b" stroke-width="none" opacity="1"></path><path id="SvgjsPath14114" d="M104.9 96.6c0 3.1 1.4 6.1 3.6 8.1s5.2 3.1 8.2 2.9c3-.1 5.9-1.6 7.9-3.9s2.8-5.5 2.4-8.5V95H129.3l-.1.2v-2.8l.1.2c-.9-.1-1.9-.1-2.8-.1h-.2l-.1-.1c-1-2.3-2.7-4.3-5-5.5-2.2-1.2-4.8-1.6-7.3-1.2s-4.8 1.8-6.5 3.7c-1.5 2.1-2.4 4.6-2.5 7.2zm0 0c0-2.6.9-5.2 2.5-7.2s4-3.5 6.6-4 5.3-.1 7.7 1.2c2.3 1.3 4.1 3.4 5.1 5.8l-.2-.1c1 0 1.9 0 2.9.1h.2v.2l-.1 2.8v.2h-.1l-2.1-.1.1-.1c.4 3.1-.6 6.2-2.6 8.6-1.9 2.4-4.9 4-8 4.2s-6.3-.9-8.5-3.1c-2.3-2.4-3.5-5.4-3.5-8.5z" fill="#070201" stroke-width="none" opacity="1"></path><path id="SvgjsPath14115" d="M105.9 96.6c0-2.7 1-5.4 2.9-7.3 1.9-2 4.6-3.1 7.3-3.1s5.4 1.2 7.3 3.1 3.1 4.6 3.1 7.3-1 5.4-3 7.4c-1.9 2-4.6 3.1-7.4 3.1-2.7 0-5.5-1.2-7.3-3.1-1.9-2-2.9-4.7-2.9-7.4zm0 0c0 2.7 1.2 5.3 3.1 7.1 1.9 1.8 4.5 2.9 7.1 2.8s5.2-1.1 7.1-2.9 3-4.4 3-7.1c0-2.6-1-5.3-2.9-7.2-1.9-1.9-4.5-2.9-7.2-2.8-2.6 0-5.2 1.1-7.1 2.9-1.9 1.9-3.1 4.5-3.1 7.2z" fill="#070201" stroke-width="none" opacity="1"></path><path id="SvgjsPath14116" d="M93.5 95.5h13.1v1.4H93.5v-1.4z" fill="#070201" stroke-width="none" opacity="1"></path></g></g></g></g></g><rect id="svga-credit-rect" width="200" height="15" x="0" y="185" fill="#ecf0f1" opacity="0.5" style="display: none;"></rect><text id="svga-credit-text" font-family="Avenir Next, Roboto, Helvetica, Arial, sans-serif" font-size="10px" text-anchor="start" font-weight="400" size="10px" anchor="start" weight="400" fill="#333333" x="33.311859130859375" y="182.60824728012085" style="display: none;"><tspan id="SvgjsTspan13921" dy="13" x="33.311859130859375">Created on AvatarMaker.com</tspan></text></g><defs id="SvgjsDefs13868"></defs></svg>